<svg width="28" height="34" viewBox="0 0 28 34" fill="none" xmlns="http://www.w3.org/2000/svg">
<path d="M27.4847 12.5855L15.2025 0.445693C14.6012 -0.148564 13.4847 -0.148564 12.8834 0.445693L0.515337 12.5855C0.171779 12.9251 0 13.3496 0 13.774V20.1411C0 20.5655 0.171779 20.99 0.515337 21.3296L12.8834 33.5543C13.4847 34.1486 14.6012 34.1486 15.2025 33.5543L27.4847 21.2447C27.8282 20.9051 28 20.5655 28 20.0562V13.6891C28 13.3496 27.8282 12.9251 27.4847 12.5855ZM26.454 19.2921L24.135 16.9151L26.5399 14.5381V19.2921H26.454ZM23.1043 15.8964L14.773 7.66167V2.05868L25.9387 13.1798L23.1043 15.8964ZM5.92638 16.9151L14 8.93508L22.0736 16.9151L14 24.8951L5.92638 16.9151ZM13.227 2.05868V7.74657L4.89571 15.9813L2.06135 13.1798L13.227 2.05868ZM14 32.6205V26.9326L23.1043 17.9338L25.9387 20.7353L14 32.6205Z" fill="url(#paint0_linear_1071_285)"/>
<defs>
<linearGradient id="paint0_linear_1071_285" x1="5.05185" y1="25.793" x2="22.7369" y2="7.90047" gradientUnits="userSpaceOnUse">
<stop stop-color="#B0B5D8"/>
<stop offset="0.1284" stop-color="#9E9DD4"/>
<stop offset="0.4074" stop-color="#7A70CB"/>
<stop offset="0.6557" stop-color="#604FC5"/>
<stop offset="0.8618" stop-color="#513AC1"/>
<stop offset="1" stop-color="#4B33C0"/>
</linearGradient>
</defs>
</svg>
