<svg width="280" height="280" viewBox="0 0 280 280" fill="none" xmlns="http://www.w3.org/2000/svg">
<path opacity="0.2" d="M156.617 127.885C186.904 127.885 211.457 103.332 211.457 73.0449C211.457 42.7575 186.904 18.2047 156.617 18.2047C126.329 18.2047 101.776 42.7575 101.776 73.0449C101.776 103.332 126.329 127.885 156.617 127.885Z" fill="url(#paint0_linear_1563_103)"/>
<path opacity="0.14" fill-rule="evenodd" clip-rule="evenodd" d="M156.616 141.506C194.426 141.506 225.078 110.855 225.078 73.045C225.078 35.2352 194.426 4.58435 156.616 4.58435C118.807 4.58435 88.1562 35.2352 88.1562 73.045C88.1562 110.855 118.807 141.506 156.616 141.506ZM156.616 127.885C186.905 127.885 211.457 103.332 211.457 73.045C211.457 42.7575 186.905 18.2047 156.616 18.2047C126.329 18.2047 101.777 42.7575 101.777 73.045C101.777 103.332 126.329 127.885 156.616 127.885Z" fill="#5E6294"/>
<path d="M125.279 101.779C117.778 98.5294 112.529 91.0597 112.529 82.3642C112.529 74.2337 117.118 67.1749 123.846 63.6357C123.38 45.0478 138.326 29.6747 156.976 29.6747C175.624 29.6747 190.571 45.0478 190.104 63.6357C196.832 67.1749 201.421 74.2337 201.421 82.3642C201.421 91.0597 196.173 98.5294 188.671 101.779L187.446 134.313C187.797 142.734 190.336 143.433 199.889 146.059C200.81 146.313 201.798 146.584 202.855 146.882C194.986 148.681 190.043 148.929 186.932 147.989L186.367 163.012C185.104 177.211 185.231 177.243 194.815 179.737C196.119 180.077 197.597 180.461 199.269 180.933C178.633 185.651 178.365 176.303 178.122 167.851C178.073 166.162 178.025 164.509 177.817 163.012H177.048C177.002 163.58 176.957 164.133 176.913 164.669V164.683C175.95 176.504 175.619 180.561 177.475 182.35C178.445 183.286 180.011 183.601 182.397 184.082C184.891 184.584 188.281 185.267 192.818 187.027C168.485 190.414 168.504 182.686 168.535 169.526C168.54 167.479 168.545 165.3 168.459 163.012H167.728C166.601 188.379 167.912 188.701 176.54 190.817C178.885 191.392 181.769 192.101 185.291 193.478C160.494 196.234 159.502 189.187 157.973 178.331C157.703 176.408 157.415 174.366 156.976 172.237C156.536 174.366 156.248 176.408 155.977 178.331C154.448 189.187 153.456 196.234 128.659 193.478C132.181 192.101 135.066 191.392 137.41 190.817C146.039 188.701 147.349 188.379 146.222 163.012H145.491C145.405 165.3 145.41 167.479 145.415 169.526C145.447 182.686 145.465 190.414 121.132 187.027C125.67 185.267 129.059 184.584 131.553 184.082C133.939 183.601 135.506 183.286 136.475 182.35C138.331 180.561 138.001 176.504 137.038 164.683C136.994 164.143 136.949 163.585 136.902 163.012H136.133C135.924 164.509 135.877 166.162 135.828 167.851C135.585 176.303 135.317 185.651 114.681 180.933C116.354 180.461 117.832 180.077 119.135 179.737C128.719 177.243 128.846 177.211 127.584 163.012L127.018 147.989C123.907 148.929 118.964 148.681 111.096 146.882C112.152 146.584 113.139 146.313 114.061 146.059C123.614 143.433 126.153 142.734 126.504 134.313L125.279 101.779Z" fill="#EF7B4D"/>
<path d="M132.601 98.4937C141.311 98.4937 148.372 91.4327 148.372 82.7226C148.372 74.0125 141.311 66.9515 132.601 66.9515C123.891 66.9515 116.83 74.0125 116.83 82.7226C116.83 91.4327 123.891 98.4937 132.601 98.4937Z" fill="#FEFEFE"/>
<path d="M132.243 85.5895C135.212 85.5895 137.619 83.1824 137.619 80.213C137.619 77.2437 135.212 74.8365 132.243 74.8365C129.273 74.8365 126.866 77.2437 126.866 80.213C126.866 83.1824 129.273 85.5895 132.243 85.5895Z" fill="black"/>
<path d="M179.199 98.4937C187.909 98.4937 194.97 91.4327 194.97 82.7226C194.97 74.0125 187.909 66.9515 179.199 66.9515C170.489 66.9515 163.428 74.0125 163.428 82.7226C163.428 91.4327 170.489 98.4937 179.199 98.4937Z" fill="#FEFEFE"/>
<path d="M178.839 85.5895C181.809 85.5895 184.216 83.1824 184.216 80.213C184.216 77.2437 181.809 74.8365 178.839 74.8365C175.87 74.8365 173.463 77.2437 173.463 80.213C173.463 83.1824 175.87 85.5895 178.839 85.5895Z" fill="black"/>
<path d="M144.788 112.114C144.788 112.114 150.523 117.849 156.975 117.849C163.426 117.849 169.161 112.114 169.161 112.114V119.282C169.161 126.013 163.705 131.469 156.975 131.469C150.244 131.469 144.788 126.013 144.788 119.282V112.114Z" fill="#FAFAFA"/>
<path d="M144.788 117.849C144.788 117.849 150.523 123.584 156.975 123.584C163.426 123.584 169.161 117.849 169.161 117.849V119.283C169.161 126.013 163.705 131.469 156.975 131.469C150.244 131.469 144.788 126.013 144.788 119.283V117.849Z" fill="#202124"/>
<path opacity="0.16" d="M111.083 107.336C103.954 97.8648 99.7083 86.0969 99.6558 73.3315C99.571 52.7592 110.397 34.6878 126.696 24.6006" stroke="#5E6294" stroke-width="3.47168" stroke-linecap="round"/>
<path opacity="0.45" d="M134.035 22.506C135.619 22.506 136.903 21.2222 136.903 19.6386C136.903 18.0549 135.619 16.7711 134.035 16.7711C132.452 16.7711 131.168 18.0549 131.168 19.6386C131.168 21.2222 132.452 22.506 134.035 22.506Z" fill="#5E6294"/>
<path d="M85.2884 56.9155H84.5716C82.9879 56.9155 81.7041 58.1993 81.7041 59.783V87.0239C81.7041 88.6075 82.9879 89.8913 84.5716 89.8913H85.2884C86.8721 89.8913 88.1559 88.6075 88.1559 87.0239V59.783C88.1559 58.1993 86.8721 56.9155 85.2884 56.9155Z" fill="#5E6294"/>
<path d="M228.661 56.9155H227.945C226.361 56.9155 225.077 58.1993 225.077 59.783V87.0239C225.077 88.6075 226.361 89.8913 227.945 89.8913H228.661C230.245 89.8913 231.529 88.6075 231.529 87.0239V59.783C231.529 58.1993 230.245 56.9155 228.661 56.9155Z" fill="#5E6294"/>
<path fill-rule="evenodd" clip-rule="evenodd" d="M156.616 145.09C196.406 145.09 228.661 112.834 228.661 73.045C228.661 33.2556 196.406 1 156.616 1C116.827 1 84.5713 33.2556 84.5713 73.045C84.5713 112.834 116.827 145.09 156.616 145.09ZM156.616 141.506C194.426 141.506 225.077 110.855 225.077 73.0451C225.077 35.2353 194.426 4.58439 156.616 4.58439C118.806 4.58439 88.1555 35.2353 88.1555 73.0451C88.1555 110.855 118.806 141.506 156.616 141.506Z" fill="#5E6294" fill-opacity="0.2"/>
<path d="M149.409 45.8698C148.689 49.2415 145.761 51.4738 142.87 50.8561C139.978 50.2382 138.125 47.5392 138.845 44.1675C139.566 40.7959 143.972 37.2141 146.863 37.8319C149.755 38.4497 150.13 42.4982 149.409 45.8698Z" fill="#F77F4F"/>
<path d="M258.812 278.486H202.14L213.077 147.249H239.904L258.812 278.486Z" fill="#5C75C9"/>
<path d="M239.655 147.247L230.672 236.448L230.369 239.465L229.54 247.719L228.234 260.698C227.742 265.573 225.461 270.092 221.832 273.377C218.204 276.664 213.485 278.484 208.592 278.485H51.4375L62.837 165.021C63.3285 160.146 65.6107 155.626 69.2412 152.339C72.8716 149.052 77.5916 147.234 82.4857 147.234L239.655 147.247Z" fill="url(#paint1_linear_1563_103)"/>
<path d="M82.4796 147.249H239.655L237.216 171.462H62.1953L62.8448 165.007C63.3393 160.137 65.6216 155.625 69.2491 152.344C72.8767 149.062 77.5913 147.247 82.4796 147.249Z" fill="url(#paint2_linear_1563_103)"/>
<path d="M230.391 239.465L229.562 247.719L228.256 260.698C227.764 265.573 225.483 270.092 221.854 273.379C218.225 276.664 213.506 278.484 208.614 278.486H186.74L230.391 239.465Z" fill="#EF7B4D"/>
<g opacity="0.71">
<path opacity="0.71" d="M91.4883 202.514C97.2156 202.514 101.858 197.864 101.858 192.129C101.858 186.394 97.2156 181.744 91.4883 181.744C85.7611 181.744 81.1182 186.394 81.1182 192.129C81.1182 197.864 85.7611 202.514 91.4883 202.514Z" fill="#A1BFF1"/>
<path opacity="0.71" d="M128.81 202.514C134.537 202.514 139.18 197.864 139.18 192.129C139.18 186.393 134.537 181.744 128.81 181.744C123.082 181.744 118.439 186.393 118.439 192.129C118.439 197.864 123.082 202.514 128.81 202.514Z" fill="white"/>
<path opacity="0.71" d="M166.968 202.514C172.694 202.514 177.338 197.864 177.338 192.129C177.338 186.393 172.694 181.744 166.968 181.744C161.24 181.744 156.597 186.393 156.597 192.129C156.597 197.864 161.24 202.514 166.968 202.514Z" fill="#A1BFF1"/>
<path opacity="0.71" d="M205.546 202.514C211.273 202.514 215.916 197.864 215.916 192.129C215.916 186.393 211.273 181.744 205.546 181.744C199.818 181.744 195.176 186.393 195.176 192.129C195.176 197.864 199.818 202.514 205.546 202.514Z" fill="white"/>
</g>
<g opacity="0.71">
<path opacity="0.71" d="M86.1543 233.516C91.8816 233.516 96.5244 228.866 96.5244 223.131C96.5244 217.395 91.8816 212.746 86.1543 212.746C80.4271 212.746 75.7842 217.395 75.7842 223.131C75.7842 228.866 80.4271 233.516 86.1543 233.516Z" fill="white"/>
<path opacity="0.71" d="M123.469 233.516C129.196 233.516 133.839 228.866 133.839 223.131C133.839 217.395 129.196 212.746 123.469 212.746C117.741 212.746 113.099 217.395 113.099 223.131C113.099 228.866 117.741 233.516 123.469 233.516Z" fill="#A1BFF1"/>
<path opacity="0.71" d="M161.626 233.516C167.353 233.516 171.996 228.866 171.996 223.131C171.996 217.395 167.353 212.746 161.626 212.746C155.898 212.746 151.256 217.395 151.256 223.131C151.256 228.866 155.898 233.516 161.626 233.516Z" fill="white"/>
<path opacity="0.71" d="M200.205 233.516C205.932 233.516 210.575 228.866 210.575 223.131C210.575 217.395 205.932 212.746 200.205 212.746C194.478 212.746 189.834 217.395 189.834 223.131C189.834 228.866 194.478 233.516 200.205 233.516Z" fill="#A1BFF1"/>
</g>
<g opacity="0.71">
<path opacity="0.71" d="M78.8663 265.541C84.5935 265.541 89.2364 260.891 89.2364 255.156C89.2364 249.421 84.5935 244.771 78.8663 244.771C73.139 244.771 68.4961 249.421 68.4961 255.156C68.4961 260.891 73.139 265.541 78.8663 265.541Z" fill="#A1BFF1"/>
<path opacity="0.71" d="M116.181 265.54C121.908 265.54 126.551 260.89 126.551 255.155C126.551 249.42 121.908 244.77 116.181 244.77C110.453 244.77 105.811 249.42 105.811 255.155C105.811 260.89 110.453 265.54 116.181 265.54Z" fill="white"/>
<path opacity="0.71" d="M154.338 265.54C160.066 265.54 164.708 260.89 164.708 255.155C164.708 249.42 160.066 244.77 154.338 244.77C148.61 244.77 143.968 249.42 143.968 255.155C143.968 260.89 148.61 265.54 154.338 265.54Z" fill="#A1BFF1"/>
</g>
<path d="M230.425 239.43L230.391 239.465L186.74 278.485V246.812C186.74 244.856 187.516 242.979 188.897 241.595C190.279 240.211 192.152 239.432 194.106 239.43H230.425Z" fill="url(#paint3_linear_1563_103)"/>
<path opacity="0.35" d="M230.391 239.465L229.562 247.719L195.149 278.486H186.74L230.391 239.465Z" fill="#EF7B4D"/>
<path opacity="0.36" d="M70.4032 278.804C89.7789 278.804 105.486 263.074 105.486 243.671C105.486 224.268 89.7789 208.539 70.4032 208.539C51.0274 208.539 35.3203 224.268 35.3203 243.671C35.3203 263.074 51.0274 278.804 70.4032 278.804Z" fill="url(#paint4_linear_1563_103)"/>
<path d="M57.083 279.246C76.4587 279.246 92.1659 263.517 92.1659 244.114C92.1659 224.711 76.4587 208.982 57.083 208.982C37.7071 208.982 22 224.711 22 244.114C22 263.517 37.7071 279.246 57.083 279.246Z" fill="url(#paint5_linear_1563_103)"/>
<path opacity="0.85" d="M58.5753 251.628C61.956 251.628 64.6965 248.884 64.6965 245.498C64.6965 242.113 61.956 239.369 58.5753 239.369C55.1946 239.369 52.4541 242.113 52.4541 245.498C52.4541 248.884 55.1946 251.628 58.5753 251.628Z" fill="#2E419B"/>
<path opacity="0.85" d="M59.5713 243.291L60.7828 244.504L76.9677 228.296L75.7562 227.083L59.5713 243.291Z" fill="#2E419B"/>
<path d="M89.8929 244.895C89.8883 253.163 86.9271 261.155 81.5459 267.424C76.1647 273.695 68.7193 277.826 60.5582 279.074C66.1107 278.521 71.4519 276.652 76.138 273.618C80.8243 270.585 84.7204 266.477 87.5031 261.634C90.2856 256.789 91.8745 251.352 92.1377 245.77C92.4008 240.189 91.3308 234.625 89.0162 229.54C86.7017 224.455 83.2095 219.998 78.8295 216.536C74.4495 213.073 69.3082 210.708 63.8322 209.635C58.3562 208.561 52.7035 208.811 47.3434 210.365C41.9834 211.917 37.0705 214.729 33.0127 218.564C38.0362 214.3 44.1725 211.563 50.6979 210.675C57.2235 209.786 63.8665 210.785 69.8442 213.553C75.8219 216.319 80.885 220.741 84.4372 226.294C87.9892 231.847 89.8822 238.302 89.8929 244.895Z" fill="url(#paint6_linear_1563_103)"/>
<path opacity="0.85" d="M38.6836 264.354L40.9601 266.634L57.6775 249.893L55.401 247.612L38.6836 264.354Z" fill="#2E419B"/>
<path opacity="0.85" d="M43.9446 231.89L41.707 234.132L52.4155 244.855L54.6531 242.615L43.9446 231.89Z" fill="#2E419B"/>
<path d="M57.089 250.189C60.4696 250.189 63.2102 247.445 63.2102 244.059C63.2102 240.674 60.4696 237.929 57.089 237.929C53.7083 237.929 50.9678 240.674 50.9678 244.059C50.9678 247.445 53.7083 250.189 57.089 250.189Z" fill="white"/>
<path d="M36.9767 262.643L36.9375 262.604L53.6549 245.863L55.9314 248.143L41.4516 262.643C40.8581 263.237 40.0533 263.571 39.214 263.571C38.3748 263.571 37.57 263.237 36.9767 262.643Z" fill="white"/>
<path d="M43.3496 232.485C43.6434 232.191 43.9922 231.957 44.3761 231.799C44.76 231.639 45.1715 231.557 45.587 231.557C46.0025 231.557 46.414 231.639 46.7979 231.799C47.1818 231.957 47.5307 232.191 47.8245 232.485L56.2955 240.968L54.0581 243.209L43.3496 232.485Z" fill="white"/>
<path d="M58.4336 242.146L59.6452 243.36L75.83 227.153L74.6185 225.94L58.4336 242.146Z" fill="white"/>
<path opacity="0.51" d="M239.655 147.249V269.969C239.655 272.228 238.759 274.393 237.163 275.99C235.569 277.589 233.406 278.486 231.15 278.486H208.613C213.506 278.484 218.225 276.664 221.854 273.377C225.483 270.092 227.764 265.573 228.255 260.698L230.39 239.465L239.655 147.249Z" fill="url(#paint7_linear_1563_103)"/>
<defs>
<linearGradient id="paint0_linear_1563_103" x1="156.617" y1="18.2048" x2="188.102" y2="126.397" gradientUnits="userSpaceOnUse">
<stop stop-color="#5E6294"/>
<stop offset="1" stop-color="#878BB2"/>
</linearGradient>
<linearGradient id="paint1_linear_1563_103" x1="-39728.1" y1="26448.6" x2="51939" y2="26448.6" gradientUnits="userSpaceOnUse">
<stop stop-color="#D6E6FD"/>
<stop offset="1" stop-color="#D2E3FD"/>
</linearGradient>
<linearGradient id="paint2_linear_1563_103" x1="-31204.4" y1="3127.37" x2="50285" y2="3127.37" gradientUnits="userSpaceOnUse">
<stop stop-color="#373282"/>
<stop offset="1" stop-color="#2E419B"/>
</linearGradient>
<linearGradient id="paint3_linear_1563_103" x1="221.437" y1="233.01" x2="179.17" y2="266.859" gradientUnits="userSpaceOnUse">
<stop stop-color="#EF7B4D"/>
<stop offset="1" stop-color="#FF8F62"/>
</linearGradient>
<linearGradient id="paint4_linear_1563_103" x1="70.4032" y1="280.464" x2="70.4032" y2="211.044" gradientUnits="userSpaceOnUse">
<stop stop-color="#5C75C9"/>
<stop offset="1" stop-color="#D2E3FD"/>
</linearGradient>
<linearGradient id="paint5_linear_1563_103" x1="57.083" y1="151.364" x2="57.083" y2="351.828" gradientUnits="userSpaceOnUse">
<stop stop-color="#5C75C9"/>
<stop offset="1" stop-color="#2E419B"/>
</linearGradient>
<linearGradient id="paint6_linear_1563_103" x1="8772.12" y1="10865.2" x2="8772.12" y2="21822.1" gradientUnits="userSpaceOnUse">
<stop stop-color="#5C75C9"/>
<stop offset="1" stop-color="#2E419B"/>
</linearGradient>
<linearGradient id="paint7_linear_1563_103" x1="224.137" y1="284.352" x2="224.137" y2="185.106" gradientUnits="userSpaceOnUse">
<stop stop-color="#373282" stop-opacity="0"/>
<stop offset="1" stop-color="#2E419B"/>
</linearGradient>
</defs>
</svg>
