<?xml version="1.0" encoding="UTF-8"?>
<svg xmlns="http://www.w3.org/2000/svg" xmlns:xlink="http://www.w3.org/1999/xlink" width="109px" height="32px" viewBox="0 0 108 32" version="1.1">
<g id="surface1">
<path style=" stroke:none;fill-rule:nonzero;fill:rgb(100%,100%,100%);fill-opacity:1;" d="M 96.246094 10.289062 C 96.757812 10.699219 96.757812 10.699219 97.507812 11.496094 C 97.507812 11.699219 97.507812 11.90625 97.507812 12.117188 C 97.742188 11.925781 97.742188 11.925781 97.984375 11.730469 C 99.679688 10.390625 100.996094 9.523438 103.21875 9.667969 C 104.5625 9.871094 105.441406 10.234375 106.457031 11.183594 C 107.242188 12.929688 107.515625 14.324219 107.472656 16.222656 C 107.472656 16.453125 107.46875 16.683594 107.46875 16.921875 C 107.464844 17.652344 107.453125 18.378906 107.441406 19.105469 C 107.4375 19.605469 107.433594 20.101562 107.429688 20.597656 C 107.417969 21.8125 107.402344 23.023438 107.382812 24.234375 C 106.566406 24.234375 105.753906 24.234375 104.914062 24.234375 C 104.90625 23.792969 104.90625 23.792969 104.894531 23.34375 C 104.871094 22.253906 104.84375 21.164062 104.816406 20.070312 C 104.804688 19.597656 104.792969 19.128906 104.785156 18.65625 C 104.769531 17.976562 104.753906 17.296875 104.734375 16.617188 C 104.722656 16.210938 104.714844 15.800781 104.703125 15.378906 C 104.613281 14.355469 104.460938 13.644531 103.988281 12.738281 C 102.996094 12.238281 101.976562 12.277344 100.902344 12.425781 C 99.589844 13.125 99.589844 13.125 98.742188 14.292969 C 98.695312 15.011719 98.664062 15.734375 98.644531 16.457031 C 98.640625 16.671875 98.632812 16.882812 98.625 17.105469 C 98.605469 17.785156 98.585938 18.464844 98.570312 19.144531 C 98.554688 19.605469 98.542969 20.066406 98.527344 20.527344 C 98.496094 21.660156 98.464844 22.792969 98.433594 23.921875 C 97.621094 23.921875 96.804688 23.921875 95.964844 23.921875 C 95.960938 23.640625 95.953125 23.355469 95.945312 23.0625 C 95.921875 22.007812 95.894531 20.949219 95.867188 19.894531 C 95.855469 19.4375 95.84375 18.980469 95.835938 18.523438 C 95.820312 17.867188 95.804688 17.207031 95.785156 16.550781 C 95.769531 15.957031 95.769531 15.957031 95.753906 15.351562 C 95.660156 14.34375 95.503906 13.632812 95.039062 12.738281 C 94.050781 12.238281 93.027344 12.277344 91.953125 12.425781 C 90.640625 13.125 90.640625 13.125 89.792969 14.292969 C 89.746094 15.039062 89.714844 15.777344 89.695312 16.527344 C 89.691406 16.746094 89.683594 16.964844 89.675781 17.191406 C 89.65625 17.894531 89.640625 18.597656 89.621094 19.300781 C 89.605469 19.777344 89.59375 20.253906 89.582031 20.730469 C 89.546875 21.898438 89.515625 23.066406 89.484375 24.234375 C 88.671875 24.234375 87.855469 24.234375 87.015625 24.234375 C 87.015625 19.621094 87.015625 15.003906 87.015625 10.253906 C 88.25 9.941406 88.25 9.941406 89.175781 10.253906 C 89.390625 10.894531 89.390625 10.894531 89.484375 11.496094 C 89.703125 11.304688 89.917969 11.109375 90.140625 10.914062 C 91.957031 9.5625 94.210938 9.089844 96.246094 10.289062 Z M 96.246094 10.289062 "/>
<path style=" stroke:none;fill-rule:nonzero;fill:rgb(99.607843%,98.431373%,97.647059%);fill-opacity:1;" d="M 26.941406 4.898438 C 27.113281 4.921875 27.285156 4.945312 27.460938 4.972656 C 27.945312 5.761719 28.417969 6.558594 28.890625 7.359375 C 29.097656 7.695312 29.097656 7.695312 29.308594 8.039062 C 30.285156 9.726562 30.285156 9.726562 30.0625 10.757812 C 29.917969 11 29.773438 11.246094 29.621094 11.496094 C 29.519531 11.8125 29.414062 12.132812 29.308594 12.460938 C 28.8125 13.640625 28.40625 14.355469 27.460938 15.222656 C 25.515625 15.910156 23.238281 15.917969 21.292969 15.222656 C 19.953125 14.222656 19.351562 12.738281 18.824219 11.183594 C 18.734375 10.933594 18.644531 10.683594 18.554688 10.425781 C 18.464844 8.601562 19.566406 6.761719 20.722656 5.402344 C 22.390625 4.136719 24.992188 4.65625 26.941406 4.898438 Z M 26.941406 4.898438 "/>
<path style=" stroke:none;fill-rule:nonzero;fill:rgb(98.431373%,98.823529%,99.215686%);fill-opacity:1;" d="M 16.558594 20.808594 C 17.480469 20.976562 17.875 21.109375 18.644531 21.675781 C 19.144531 22.414062 19.4375 23.089844 19.75 23.921875 C 19.867188 24.105469 19.984375 24.292969 20.105469 24.480469 C 20.507812 25.128906 20.792969 25.667969 20.984375 26.40625 C 20.738281 27.414062 20.238281 28.191406 19.671875 29.046875 C 19.464844 29.386719 19.464844 29.386719 19.253906 29.734375 C 18.914062 30.289062 18.558594 30.832031 18.207031 31.378906 C 12.671875 31.835938 12.671875 31.835938 11.246094 30.8125 C 10.785156 30.082031 10.472656 29.394531 10.183594 28.582031 C 9.984375 28.308594 9.789062 28.03125 9.585938 27.746094 C 9.011719 26.488281 9.496094 25.363281 9.929688 24.097656 C 11.453125 20.980469 13.152344 20.457031 16.558594 20.808594 Z M 16.558594 20.808594 "/>
<path style=" stroke:none;fill-rule:nonzero;fill:rgb(99.607843%,98.039216%,98.039216%);fill-opacity:1;" d="M 12.636719 10.527344 C 12.894531 10.53125 13.148438 10.53125 13.414062 10.53125 C 13.691406 10.535156 13.96875 10.535156 14.253906 10.535156 C 14.691406 10.539062 14.691406 10.539062 15.140625 10.542969 C 15.433594 10.546875 15.726562 10.546875 16.027344 10.546875 C 16.753906 10.550781 17.480469 10.558594 18.207031 10.5625 C 20.476562 13.828125 20.476562 13.828125 20.984375 15.535156 C 20.722656 16.972656 20.046875 17.84375 19.132812 18.953125 C 18.960938 19.28125 18.792969 19.613281 18.621094 19.957031 C 17.84375 20.878906 17.703125 20.964844 16.582031 21.140625 C 16.070312 21.171875 15.554688 21.183594 15.042969 21.183594 C 14.777344 21.183594 14.515625 21.1875 14.242188 21.1875 C 13.210938 21.128906 12.371094 21.066406 11.523438 20.4375 C 10.582031 19.359375 10.039062 18.125 9.566406 16.777344 C 9.425781 16.394531 9.425781 16.394531 9.28125 16.007812 C 9.246094 14.804688 9.84375 13.960938 10.453125 12.972656 C 10.628906 12.675781 10.628906 12.675781 10.804688 12.371094 C 11.875 10.574219 11.875 10.574219 12.636719 10.527344 Z M 12.636719 10.527344 "/>
<path style=" stroke:none;fill-rule:nonzero;fill:rgb(99.215686%,99.607843%,98.431373%);fill-opacity:1;" d="M 6.386719 4.675781 C 8.304688 4.730469 8.304688 4.730469 9.152344 5.339844 C 10.472656 6.828125 11.367188 8.882812 11.417969 10.875 C 11.046875 11.652344 10.699219 12.285156 10.222656 12.992188 C 10.105469 13.171875 9.988281 13.355469 9.867188 13.539062 C 9.042969 14.820312 9.042969 14.820312 8.640625 15.222656 C 8.179688 15.25 7.71875 15.257812 7.261719 15.253906 C 6.984375 15.253906 6.703125 15.25 6.417969 15.25 C 5.980469 15.246094 5.980469 15.246094 5.535156 15.242188 C 5.242188 15.242188 4.949219 15.238281 4.648438 15.238281 C 3.921875 15.234375 3.195312 15.230469 2.46875 15.222656 C 2.042969 14.539062 1.628906 13.855469 1.214844 13.164062 C 1.09375 12.972656 0.972656 12.78125 0.851562 12.582031 C 0.28125 11.625 -0.00390625 11.058594 0.0117188 9.921875 C 0.355469 8.867188 0.816406 7.996094 1.386719 7.046875 C 1.582031 6.722656 1.777344 6.398438 1.976562 6.0625 C 3.007812 4.429688 4.578125 4.726562 6.386719 4.675781 Z M 6.386719 4.675781 "/>
<path style=" stroke:none;fill-rule:nonzero;fill:rgb(97.254902%,78.039217%,12.156863%);fill-opacity:1;" d="M 15.800781 -0.515625 C 17.28125 -0.375 18.265625 -0.144531 19.269531 0.996094 C 20.070312 2.167969 20.609375 3.289062 20.984375 4.660156 C 20.777344 5.464844 20.777344 5.464844 20.367188 6.214844 C 20.265625 6.53125 20.164062 6.851562 20.0625 7.179688 C 19.566406 8.386719 19.191406 9.082031 18.207031 9.941406 C 16.097656 10.429688 13.855469 10.167969 11.726562 9.941406 C 11.300781 9.257812 10.886719 8.574219 10.472656 7.882812 C 10.351562 7.691406 10.230469 7.5 10.109375 7.300781 C 9.535156 6.332031 9.25 5.789062 9.292969 4.640625 C 9.382812 4.339844 9.472656 4.039062 9.566406 3.726562 C 9.65625 3.398438 9.746094 3.070312 9.839844 2.730469 C 11.09375 -0.210938 12.835938 -0.546875 15.800781 -0.515625 Z M 15.800781 -0.515625 "/>
<path style=" stroke:none;fill-rule:nonzero;fill:rgb(51.764709%,40.000001%,67.058825%);fill-opacity:1;" d="M 25.074219 15.816406 C 26.214844 15.851562 27.105469 15.886719 28.035156 16.589844 C 29.113281 17.839844 29.792969 19.230469 30.238281 20.816406 C 30.039062 21.621094 30.039062 21.621094 29.621094 22.367188 C 29.519531 22.6875 29.414062 23.007812 29.308594 23.335938 C 28.8125 24.515625 28.410156 25.230469 27.460938 26.097656 C 25.507812 26.71875 23.257812 26.65625 21.292969 26.097656 C 20.238281 25.3125 19.875 24.519531 19.441406 23.300781 C 19.242188 23.019531 19.046875 22.738281 18.84375 22.445312 C 18.410156 21.527344 18.546875 21.167969 18.824219 20.195312 C 19.160156 19.535156 19.523438 18.886719 19.902344 18.253906 C 20.097656 17.925781 20.292969 17.59375 20.492188 17.257812 C 21.535156 15.578125 23.226562 15.878906 25.074219 15.816406 Z M 25.074219 15.816406 "/>
<path style=" stroke:none;fill-rule:nonzero;fill:rgb(60.784316%,79.215688%,26.666668%);fill-opacity:1;" d="M 7.605469 16.023438 C 8.054688 16.066406 8.5 16.109375 8.949219 16.15625 C 9.371094 16.839844 9.789062 17.523438 10.203125 18.214844 C 10.324219 18.40625 10.441406 18.597656 10.566406 18.792969 C 11.140625 19.761719 11.425781 20.308594 11.382812 21.457031 C 11.292969 21.757812 11.203125 22.058594 11.109375 22.367188 C 11.019531 22.699219 10.925781 23.027344 10.832031 23.367188 C 10.324219 24.5625 9.945312 25.25 8.949219 26.097656 C 6.839844 26.578125 4.601562 26.320312 2.46875 26.097656 C 2.042969 25.414062 1.628906 24.730469 1.214844 24.039062 C 1.09375 23.847656 0.972656 23.65625 0.851562 23.457031 C 0.277344 22.488281 -0.0078125 21.945312 0.0351562 20.796875 C 0.125 20.496094 0.214844 20.195312 0.308594 19.882812 C 0.398438 19.554688 0.488281 19.226562 0.582031 18.886719 C 2.046875 15.457031 4.320312 15.796875 7.605469 16.023438 Z M 7.605469 16.023438 "/>
<path style=" stroke:none;fill-rule:nonzero;fill:rgb(100%,100%,100%);fill-opacity:1;" d="M 74.058594 10.253906 C 74.0625 10.515625 74.066406 10.777344 74.070312 11.046875 C 74.089844 12.023438 74.113281 13.003906 74.136719 13.980469 C 74.148438 14.40625 74.15625 14.828125 74.164062 15.25 C 74.167969 18.480469 74.167969 18.480469 75.292969 21.4375 C 76.234375 22.070312 76.796875 22.058594 77.933594 22.039062 C 79.242188 21.679688 79.515625 21.339844 80.230469 20.195312 C 80.425781 19.085938 80.425781 19.085938 80.417969 17.867188 C 80.421875 17.648438 80.425781 17.429688 80.433594 17.207031 C 80.445312 16.511719 80.453125 15.820312 80.460938 15.125 C 80.46875 14.65625 80.476562 14.183594 80.488281 13.710938 C 80.511719 12.558594 80.527344 11.40625 80.539062 10.253906 C 81.351562 10.253906 82.167969 10.253906 83.003906 10.253906 C 83.035156 11.765625 83.058594 13.28125 83.074219 14.796875 C 83.078125 15.308594 83.089844 15.824219 83.097656 16.339844 C 83.113281 17.082031 83.121094 17.824219 83.125 18.566406 C 83.132812 18.792969 83.140625 19.023438 83.144531 19.257812 C 83.144531 20.867188 82.773438 21.75 81.769531 22.992188 C 80.203125 24.414062 78.570312 24.609375 76.527344 24.542969 C 74.597656 24.253906 73.449219 23.519531 72.234375 22 C 71.460938 20.707031 71.550781 19.378906 71.558594 17.898438 C 71.558594 17.679688 71.558594 17.460938 71.558594 17.234375 C 71.5625 16.539062 71.566406 15.84375 71.570312 15.144531 C 71.570312 14.671875 71.570312 14.199219 71.574219 13.726562 C 71.578125 12.566406 71.582031 11.410156 71.589844 10.253906 C 72.605469 9.910156 73.042969 10.003906 74.058594 10.253906 Z M 74.058594 10.253906 "/>
<path style=" stroke:none;fill-rule:nonzero;fill:rgb(100%,100%,100%);fill-opacity:1;" d="M 47.828125 10.253906 C 48.136719 10.5625 48.136719 10.5625 48.15625 11.667969 C 48.148438 12.023438 48.144531 12.375 48.136719 12.738281 C 47.917969 12.6875 47.699219 12.636719 47.472656 12.585938 C 45.738281 12.269531 43.9375 12.148438 42.273438 12.777344 C 41.210938 13.78125 40.789062 14.644531 40.644531 16.117188 C 40.59375 17.925781 40.660156 18.972656 41.65625 20.503906 C 41.65625 20.710938 41.65625 20.914062 41.65625 21.125 C 43.847656 22.054688 46.152344 21.921875 48.445312 21.4375 C 48.445312 22.15625 48.445312 22.871094 48.445312 23.613281 C 46.675781 24.628906 44.464844 24.761719 42.488281 24.332031 C 40.207031 23.511719 39.003906 22.351562 37.953125 20.195312 C 37.171875 17.757812 37.480469 15.019531 38.570312 12.738281 C 40.640625 9.390625 44.402344 9.054688 47.828125 10.253906 Z M 47.828125 10.253906 "/>
<path style=" stroke:none;fill-rule:nonzero;fill:rgb(100%,100%,100%);fill-opacity:1;" d="M 58.320312 2.796875 C 59.132812 2.796875 59.949219 2.796875 60.789062 2.796875 C 60.789062 9.871094 60.789062 16.945312 60.789062 24.234375 C 59.972656 24.234375 59.160156 24.234375 58.320312 24.234375 C 58.320312 17.160156 58.320312 10.085938 58.320312 2.796875 Z M 58.320312 2.796875 "/>
<path style=" stroke:none;fill-rule:nonzero;fill:rgb(90.980393%,16.078432%,17.254902%);fill-opacity:1;" d="M 14.964844 11.726562 C 16.292969 11.8125 17.007812 11.867188 18.003906 12.777344 C 19.191406 14.667969 19.191406 14.667969 19.066406 15.855469 C 18.773438 16.589844 18.421875 17.257812 18.03125 17.941406 C 17.890625 18.191406 17.75 18.4375 17.605469 18.695312 C 17.5 18.882812 17.390625 19.070312 17.28125 19.261719 C 15.808594 19.425781 14.425781 19.507812 12.960938 19.261719 C 11.773438 18.261719 10.980469 16.78125 10.800781 15.222656 C 11.429688 12.84375 12.527344 11.882812 14.964844 11.726562 Z M 14.964844 11.726562 "/>
<path style=" stroke:none;fill-rule:nonzero;fill:rgb(39.215687%,54.509807%,77.64706%);fill-opacity:1;" d="M 17.28125 22.679688 C 17.609375 23.210938 17.929688 23.75 18.246094 24.292969 C 18.421875 24.589844 18.601562 24.890625 18.785156 25.199219 C 19.132812 26.097656 19.132812 26.097656 18.917969 26.914062 C 18.71875 27.277344 18.71875 27.277344 18.515625 27.652344 C 18.40625 27.859375 18.296875 28.066406 18.183594 28.277344 C 17.882812 28.792969 17.582031 29.308594 17.28125 29.824219 C 15.691406 30.007812 14.234375 30.097656 12.652344 29.824219 C 11.636719 28.953125 11.085938 28.03125 10.800781 26.71875 C 11.039062 25.921875 11.039062 25.921875 11.417969 25.164062 C 11.539062 24.820312 11.539062 24.820312 11.664062 24.46875 C 12.796875 21.984375 14.867188 22.441406 17.28125 22.679688 Z M 17.28125 22.679688 "/>
<path style=" stroke:none;fill-rule:nonzero;fill:rgb(79.215688%,86.666667%,45.490196%);fill-opacity:1;" d="M 3.394531 6.523438 C 4.867188 6.359375 6.246094 6.28125 7.714844 6.523438 C 8.902344 7.523438 9.691406 9.003906 9.875 10.5625 C 9.535156 11.851562 9.003906 12.773438 8.023438 13.667969 C 6.394531 14.132812 5.023438 14.128906 3.394531 13.667969 C 2.367188 12.777344 1.890625 11.878906 1.542969 10.5625 C 1.660156 9.574219 1.660156 9.574219 2.160156 8.699219 C 2.265625 8.503906 2.375 8.304688 2.484375 8.101562 C 2.773438 7.570312 3.082031 7.046875 3.394531 6.523438 Z M 3.394531 6.523438 "/>
<path style=" stroke:none;fill-rule:nonzero;fill:rgb(94.509804%,45.882353%,14.901961%);fill-opacity:1;" d="M 25.503906 6.238281 C 26.734375 6.578125 27.074219 6.90625 27.753906 7.980469 C 28.507812 9.480469 28.34375 10.328125 27.863281 11.878906 C 27.496094 12.65625 27.203125 13.117188 26.539062 13.667969 C 25.023438 14.058594 23.730469 14.058594 22.21875 13.667969 C 21.234375 12.878906 20.765625 12.066406 20.367188 10.875 C 20.308594 9.921875 20.308594 9.921875 20.675781 9.007812 C 20.746094 8.789062 20.820312 8.570312 20.894531 8.34375 C 21.824219 6.203125 23.324219 6.117188 25.503906 6.238281 Z M 25.503906 6.238281 "/>
<path style=" stroke:none;fill-rule:nonzero;fill:rgb(99.215686%,98.823529%,99.215686%);fill-opacity:1;" d="M 25.074219 15.816406 C 26.214844 15.851562 27.105469 15.886719 28.035156 16.589844 C 29.113281 17.839844 29.792969 19.230469 30.238281 20.816406 C 30.039062 21.621094 30.039062 21.621094 29.621094 22.367188 C 29.519531 22.6875 29.414062 23.007812 29.308594 23.335938 C 28.8125 24.515625 28.410156 25.230469 27.460938 26.097656 C 25.507812 26.71875 23.257812 26.65625 21.292969 26.097656 C 20.238281 25.3125 19.875 24.519531 19.441406 23.300781 C 19.242188 23.019531 19.046875 22.738281 18.84375 22.445312 C 18.410156 21.527344 18.546875 21.167969 18.824219 20.195312 C 19.160156 19.535156 19.523438 18.886719 19.902344 18.253906 C 20.097656 17.925781 20.292969 17.59375 20.492188 17.257812 C 21.535156 15.578125 23.226562 15.878906 25.074219 15.816406 Z M 21.507812 18.023438 C 20.792969 19.171875 20.390625 20.117188 20.308594 21.476562 C 20.429688 21.769531 20.550781 22.066406 20.675781 22.367188 C 20.78125 22.699219 20.78125 22.699219 20.894531 23.035156 C 21.25 23.855469 21.511719 24.296875 22.21875 24.855469 C 23.679688 25.070312 25.070312 25 26.539062 24.855469 C 27.945312 22.789062 27.945312 22.789062 28.273438 20.425781 C 28.105469 20.144531 27.941406 19.863281 27.769531 19.574219 C 27.664062 19.375 27.558594 19.179688 27.449219 18.976562 C 27.15625 18.445312 26.847656 17.921875 26.539062 17.398438 C 23.851562 16.980469 23.851562 16.980469 21.507812 18.023438 Z M 21.507812 18.023438 "/>
<path style=" stroke:none;fill-rule:nonzero;fill:rgb(99.607843%,99.607843%,98.823529%);fill-opacity:1;" d="M 15.800781 -0.515625 C 17.28125 -0.375 18.265625 -0.144531 19.269531 0.996094 C 20.070312 2.167969 20.609375 3.289062 20.984375 4.660156 C 20.777344 5.464844 20.777344 5.464844 20.367188 6.214844 C 20.265625 6.53125 20.164062 6.851562 20.0625 7.179688 C 19.566406 8.386719 19.191406 9.082031 18.207031 9.941406 C 16.097656 10.429688 13.855469 10.167969 11.726562 9.941406 C 11.300781 9.257812 10.886719 8.574219 10.472656 7.882812 C 10.351562 7.691406 10.230469 7.5 10.109375 7.300781 C 9.535156 6.332031 9.25 5.789062 9.292969 4.640625 C 9.382812 4.339844 9.472656 4.039062 9.566406 3.726562 C 9.65625 3.398438 9.746094 3.070312 9.839844 2.730469 C 11.09375 -0.210938 12.835938 -0.546875 15.800781 -0.515625 Z M 12.171875 1.949219 C 11.570312 2.859375 11.105469 3.609375 10.800781 4.660156 C 11 5.476562 11 5.476562 11.417969 6.214844 C 11.5 6.441406 11.578125 6.671875 11.664062 6.910156 C 12.019531 7.695312 12.289062 8.148438 12.960938 8.699219 C 14.421875 8.917969 15.8125 8.84375 17.28125 8.699219 C 18.6875 6.632812 18.6875 6.632812 19.015625 4.273438 C 18.851562 3.988281 18.683594 3.707031 18.515625 3.417969 C 18.40625 3.222656 18.300781 3.023438 18.191406 2.824219 C 17.898438 2.289062 17.589844 1.765625 17.28125 1.242188 C 14.539062 0.808594 14.539062 0.808594 12.171875 1.949219 Z M 12.171875 1.949219 "/>
<path style=" stroke:none;fill-rule:nonzero;fill:rgb(99.215686%,99.607843%,98.823529%);fill-opacity:1;" d="M 7.605469 16.023438 C 8.054688 16.066406 8.5 16.109375 8.949219 16.15625 C 9.371094 16.839844 9.789062 17.523438 10.203125 18.214844 C 10.324219 18.40625 10.441406 18.597656 10.566406 18.792969 C 11.140625 19.761719 11.425781 20.308594 11.382812 21.457031 C 11.292969 21.757812 11.203125 22.058594 11.109375 22.367188 C 11.019531 22.699219 10.925781 23.027344 10.832031 23.367188 C 10.324219 24.5625 9.945312 25.25 8.949219 26.097656 C 6.839844 26.578125 4.601562 26.320312 2.46875 26.097656 C 2.042969 25.414062 1.628906 24.730469 1.214844 24.039062 C 1.09375 23.847656 0.972656 23.65625 0.851562 23.457031 C 0.277344 22.488281 -0.0078125 21.945312 0.0351562 20.796875 C 0.125 20.496094 0.214844 20.195312 0.308594 19.882812 C 0.398438 19.554688 0.488281 19.226562 0.582031 18.886719 C 2.046875 15.457031 4.320312 15.796875 7.605469 16.023438 Z M 3.394531 17.398438 C 3.066406 17.929688 2.746094 18.46875 2.429688 19.007812 C 2.25 19.308594 2.070312 19.609375 1.886719 19.917969 C 1.449219 20.789062 1.449219 20.789062 1.761719 21.621094 C 1.894531 21.867188 2.023438 22.113281 2.160156 22.367188 C 2.246094 22.597656 2.328125 22.828125 2.417969 23.0625 C 2.773438 23.824219 3.074219 24.296875 3.703125 24.855469 C 5.128906 25.289062 6.289062 25.300781 7.714844 24.855469 C 8.769531 23.867188 9.453125 22.828125 9.875 21.4375 C 9.675781 20.617188 9.675781 20.617188 9.257812 19.882812 C 9.175781 19.652344 9.09375 19.425781 9.011719 19.1875 C 8.652344 18.402344 8.386719 17.949219 7.714844 17.398438 C 6.253906 17.179688 4.859375 17.253906 3.394531 17.398438 Z M 3.394531 17.398438 "/>
<path style=" stroke:none;fill-rule:nonzero;fill:rgb(100%,100%,100%);fill-opacity:1;" d="M 54 10.253906 C 54 14.761719 54 19.273438 54 23.921875 C 53.183594 23.921875 52.371094 23.921875 51.53125 23.921875 C 51.53125 19.410156 51.53125 14.898438 51.53125 10.253906 C 52.457031 9.941406 52.457031 9.941406 54 10.253906 Z M 54 10.253906 "/>
<path style=" stroke:none;fill-rule:nonzero;fill:rgb(100%,100%,100%);fill-opacity:1;" d="M 65.109375 10.253906 C 65.921875 10.253906 66.738281 10.253906 67.578125 10.253906 C 67.578125 14.761719 67.578125 19.273438 67.578125 23.921875 C 66.761719 23.921875 65.949219 23.921875 65.109375 23.921875 C 65.109375 19.410156 65.109375 14.898438 65.109375 10.253906 Z M 65.109375 10.253906 "/>
<path style=" stroke:none;fill-rule:nonzero;fill:rgb(100%,100%,100%);fill-opacity:1;" d="M 65.109375 4.347656 C 65.921875 4.347656 66.738281 4.347656 67.578125 4.347656 C 67.578125 5.273438 67.578125 6.195312 67.578125 7.144531 C 66.761719 7.144531 65.949219 7.144531 65.109375 7.144531 C 65.109375 6.222656 65.109375 5.300781 65.109375 4.347656 Z M 65.109375 4.347656 "/>
<path style=" stroke:none;fill-rule:nonzero;fill:rgb(100%,100%,100%);fill-opacity:1;" d="M 51.53125 4.347656 C 52.347656 4.347656 53.160156 4.347656 54 4.347656 C 54 5.273438 54 6.195312 54 7.144531 C 53.183594 7.144531 52.371094 7.144531 51.53125 7.144531 C 51.53125 6.222656 51.53125 5.300781 51.53125 4.347656 Z M 51.53125 4.347656 "/>
</g>
</svg>
