<svg xmlns="http://www.w3.org/2000/svg" fill="none" viewBox="0 0 280 280"><path fill="#FEFBF9" d="M243.256 47.11c1.495.205 2.99.408 4.519.646 4.214 6.864 8.325 13.796 12.436 20.761 1.801 2.922 1.801 2.922 3.636 5.913 8.495 14.678 8.495 14.678 6.558 23.649-1.257 2.107-2.514 4.247-3.84 6.422-.883 2.752-1.8 5.538-2.718 8.393-4.315 10.261-7.849 16.479-16.072 24.023-16.921 5.98-36.731 6.048-53.652 0-11.655-8.699-16.888-21.611-21.475-35.134-.781-2.175-1.563-4.35-2.344-6.592-.782-15.868 8.8-31.873 18.858-43.697 14.509-11.01 37.139-6.49 54.094-4.383"/><path fill="#FBFCFD" d="M152.94 185.506c8.019 1.461 11.45 2.617 18.144 7.543 4.35 6.422 6.898 12.301 9.616 19.538 1.02 1.597 2.039 3.228 3.092 4.859 3.5 5.641 5.981 10.33 7.646 16.752-2.141 8.766-6.49 15.528-11.417 22.969-1.801 2.957-1.801 2.957-3.636 5.981-2.956 4.825-6.048 9.548-9.106 14.305-48.148 3.975-48.148 3.975-60.551-4.927-4.009-6.354-6.727-12.334-9.242-19.402-1.733-2.379-3.432-4.791-5.199-7.271-4.995-10.942-.781-20.728 2.99-31.737 13.252-27.115 28.033-31.668 57.663-28.61"/><path fill="#FEFAFA" d="M118.825 96.074c2.242.034 4.451.034 6.761.034 2.413.034 4.825.034 7.306.034l7.713.068c2.548.034 5.097.034 7.713.034 6.32.034 12.64.102 18.96.136 19.742 28.406 19.742 28.406 24.159 43.255-2.276 12.504-8.155 20.081-16.106 29.731a522 522 0 0 0-4.451 8.733c-6.762 8.019-7.985 8.766-17.737 10.295-4.451.272-8.936.374-13.387.374-2.311 0-4.588.034-6.966.034-8.97-.51-16.276-1.053-23.649-6.524-8.189-9.378-12.912-20.115-17.024-31.838-1.223-3.33-1.223-3.33-2.48-6.694-.306-10.465 4.893-17.805 10.194-26.401 1.529-2.583 1.529-2.583 3.058-5.233 9.31-15.63 9.31-15.63 15.936-16.038"/><path fill="#FDFEFB" d="M64.459 45.174c16.683.476 16.683.476 24.057 5.776C100 63.896 107.782 81.77 108.223 99.098c-3.228 6.762-6.252 12.267-10.397 18.417-1.02 1.563-2.039 3.16-3.092 4.757-7.17 11.145-7.17 11.145-10.67 14.645-4.009.237-8.018.305-11.994.271-2.412 0-4.859-.034-7.34-.034l-7.679-.068c-2.548 0-5.096-.034-7.713-.034-6.32-.033-12.64-.067-18.96-.135a1202 1202 0 0 1-10.907-17.907 330 330 0 0 1-3.16-5.063c-4.961-8.325-7.442-13.252-7.306-23.14 2.99-9.174 7-16.751 11.96-25.008 1.7-2.82 3.399-5.64 5.132-8.563 8.97-14.203 22.63-11.62 38.362-12.062"/><path fill="#F8C71F" d="M146.349.016c12.878 1.223 21.44 3.228 30.173 13.15 6.965 10.194 11.655 19.945 14.916 31.872-1.8 7-1.8 7-5.368 13.524a840 840 0 0 0-2.651 8.392c-4.315 10.5-7.577 16.548-16.139 24.023-18.349 4.248-37.853 1.971-56.371 0a1189 1189 0 0 1-10.907-17.907 326 326 0 0 1-3.16-5.062c-4.995-8.427-7.476-13.15-7.102-23.14.781-2.616 1.563-5.233 2.378-7.95.782-2.855 1.564-5.71 2.379-8.665C105.404 2.666 120.559-.256 146.349.016"/><path fill="#8466AB" d="M227.012 142.081c9.922.306 17.669.612 25.756 6.728 9.378 10.873 15.291 22.97 19.164 36.765-1.733 7-1.733 7-5.369 13.49-.883 2.786-1.8 5.572-2.718 8.427-4.315 10.261-7.815 16.479-16.072 24.023-16.989 5.402-36.561 4.859-53.652 0-9.175-6.83-12.335-13.728-16.106-24.329a899 899 0 0 1-5.199-7.442c-3.772-7.985-2.582-11.111-.17-19.571 2.922-5.743 6.082-11.383 9.378-16.888 1.699-2.854 3.398-5.742 5.131-8.664 9.072-14.611 23.785-11.995 39.857-12.539"/><path fill="#9BCA44" d="M75.062 143.882c3.907.374 7.78.748 11.688 1.156 3.67 5.946 7.306 11.892 10.907 17.906 1.054 1.665 2.073 3.33 3.16 5.029 4.995 8.427 7.476 13.184 7.102 23.174-.781 2.616-1.563 5.233-2.378 7.917-.782 2.888-1.597 5.742-2.413 8.698-4.417 10.398-7.713 16.378-16.378 23.752-18.348 4.179-37.818 1.936-56.37 0a1202 1202 0 0 1-10.908-17.907c-1.053-1.665-2.107-3.33-3.16-5.063-4.995-8.427-7.475-13.15-7.101-23.14.781-2.616 1.563-5.232 2.378-7.951.782-2.854 1.563-5.708 2.379-8.664 12.742-29.834 32.517-26.877 61.093-24.907"/><path fill="#E8292C" d="M139.076 106.506c11.553.747 17.771 1.223 26.435 9.14 10.33 16.446 10.33 16.446 9.243 26.775-2.549 6.388-5.607 12.199-9.005 18.145-1.223 2.175-2.446 4.315-3.703 6.558-.918 1.631-1.869 3.262-2.821 4.927-12.81 1.427-24.838 2.14-37.58 0-10.33-8.699-17.227-21.577-18.791-35.134 5.471-20.693 15.019-29.052 36.222-30.411"/><path fill="#648BC6" d="M159.225 201.782a633 633 0 0 1 8.393 14.033c1.529 2.583 3.092 5.199 4.689 7.884 3.024 7.815 3.024 7.815 1.155 14.916-1.732 3.16-1.732 3.16-3.499 6.422-.952 1.801-1.903 3.602-2.889 5.437l-7.849 13.455c-13.829 1.597-26.503 2.379-40.265 0-8.834-7.577-13.625-15.596-16.106-27.013 2.073-6.931 2.073-6.931 5.369-13.523 1.053-2.99 1.053-2.99 2.141-6.049 9.854-21.61 27.862-17.635 48.861-15.562"/><path fill="#CADD74" d="M38.43 61.246c12.81-1.427 24.805-2.107 37.58 0 10.33 8.699 17.194 21.577 18.791 35.134-2.956 11.213-7.577 19.232-16.106 27.013-14.17 4.044-26.096 4.01-40.265 0-8.936-7.747-13.082-15.562-16.106-27.013 1.02-8.597 1.02-8.597 5.369-16.208.917-1.699 1.869-3.432 2.82-5.199 2.515-4.62 5.199-9.174 7.917-13.727"/><path fill="#F17526" d="M230.749 58.765c10.703 2.956 13.659 5.81 19.572 15.155 6.558 13.048 5.131 20.421.951 33.911-3.194 6.762-5.742 10.771-11.519 15.562-13.183 3.398-24.43 3.398-37.58 0-8.563-6.864-12.64-13.931-16.106-24.295-.51-8.29-.51-8.29 2.684-16.242.612-1.902 1.257-3.805 1.903-5.776 8.087-18.62 21.135-19.368 40.095-18.315"/><path fill="#FDFCFD" d="M227.012 142.081c9.922.306 17.669.612 25.756 6.728 9.378 10.873 15.291 22.97 19.164 36.765-1.733 7-1.733 7-5.369 13.49-.883 2.786-1.8 5.572-2.718 8.427-4.315 10.261-7.815 16.479-16.072 24.023-16.989 5.402-36.561 4.859-53.652 0-9.175-6.83-12.335-13.728-16.106-24.329a899 899 0 0 1-5.199-7.442c-3.772-7.985-2.582-11.111-.17-19.571 2.922-5.743 6.082-11.383 9.378-16.888 1.699-2.854 3.398-5.742 5.131-8.664 9.072-14.611 23.785-11.995 39.857-12.539M195.99 161.28c-6.219 9.989-9.718 18.212-10.432 30.037 1.053 2.548 2.107 5.131 3.194 7.747.917 2.888.917 2.888 1.903 5.81 3.092 7.136 5.369 10.975 11.519 15.834 12.708 1.869 24.804 1.258 37.58 0 12.233-17.974 12.233-17.974 15.087-38.532-1.461-2.446-2.888-4.892-4.383-7.407-.918-1.733-1.835-3.432-2.787-5.199-2.548-4.621-5.232-9.174-7.917-13.727-23.377-3.636-23.377-3.636-43.764 5.437"/><path fill="#FEFEFC" d="M146.349.016c12.878 1.223 21.44 3.228 30.173 13.15 6.965 10.194 11.655 19.945 14.916 31.872-1.8 7-1.8 7-5.368 13.524a840 840 0 0 0-2.651 8.392c-4.315 10.5-7.577 16.548-16.139 24.023-18.349 4.248-37.853 1.971-56.371 0a1189 1189 0 0 1-10.907-17.907 326 326 0 0 1-3.16-5.062c-4.995-8.427-7.476-13.15-7.102-23.14.781-2.616 1.563-5.233 2.378-7.95.782-2.855 1.564-5.71 2.379-8.665C105.404 2.666 120.559-.256 146.349.016m-31.567 21.44c-5.232 7.918-9.276 14.442-11.926 23.582 1.733 7.102 1.733 7.102 5.368 13.524.714 1.97 1.394 3.975 2.141 6.048 3.092 6.83 5.437 10.771 11.281 15.562 12.708 1.903 24.805 1.257 37.581 0 12.232-17.975 12.232-17.975 15.086-38.498-1.427-2.48-2.888-4.927-4.349-7.441-.952-1.7-1.869-3.432-2.82-5.165-2.549-4.655-5.233-9.208-7.917-13.762-23.854-3.771-23.854-3.771-44.445 6.15"/><path fill="#FDFEFC" d="M75.062 143.882c3.907.374 7.78.748 11.688 1.156 3.67 5.946 7.306 11.892 10.907 17.906 1.054 1.665 2.073 3.33 3.16 5.029 4.995 8.427 7.476 13.184 7.102 23.174-.781 2.616-1.563 5.233-2.378 7.917-.782 2.888-1.597 5.742-2.413 8.698-4.417 10.398-7.713 16.378-16.378 23.752-18.348 4.179-37.818 1.936-56.37 0a1202 1202 0 0 1-10.908-17.907c-1.053-1.665-2.107-3.33-3.16-5.063-4.995-8.427-7.475-13.15-7.101-23.14.781-2.616 1.563-5.232 2.378-7.951.782-2.854 1.563-5.708 2.379-8.664 12.742-29.834 32.517-26.877 61.093-24.907m-36.63 11.961c-2.854 4.621-5.64 9.31-8.392 13.999a5023 5023 0 0 0-4.723 7.917c-3.806 7.577-3.806 7.577-1.088 14.815 1.156 2.141 2.277 4.281 3.466 6.49.748 2.005 1.461 4.009 2.243 6.048 3.092 6.626 5.708 10.737 11.179 15.596 12.402 3.772 22.494 3.874 34.896 0 9.174-8.596 15.12-17.635 18.79-29.731-1.733-7.136-1.733-7.136-5.368-13.524-.714-2.004-1.428-3.975-2.141-6.048-3.126-6.83-5.437-10.771-11.281-15.562-12.708-1.903-24.839-1.257-37.58 0"/></svg>