<svg width="401" height="388" viewBox="0 0 401 388" fill="none" xmlns="http://www.w3.org/2000/svg">
<g clip-path="url(#clip0_1138_83532)">
<path d="M40.9118 88.7232L6.39281 234.322C4.61206 241.834 6.40099 249.746 11.2398 255.761L106.1 373.671C110.845 379.569 118.008 383 125.579 383H278.75C286.442 383 293.706 379.459 298.444 373.4L390.537 255.628C395.201 249.663 396.911 241.904 395.185 234.531L361.058 88.7175C359.328 81.3246 354.332 75.1187 347.479 71.85L212.707 7.56719C205.939 4.33912 198.08 4.31925 191.296 7.51304L54.5891 71.8716C47.7023 75.1138 42.6678 81.3168 40.9118 88.7232Z" fill="#336BE4" stroke="white" stroke-width="10"/>
<path d="M294.75 99H106.75V278H294.75V99Z" fill="white"/>
<path d="M114 166.5H93V210.5H114V166.5Z" fill="white"/>
<path d="M310 166.5H289V210.5H310V166.5Z" fill="white"/>
<path d="M54.5 188.499L98.75 145.198V231.8L54.5 188.499Z" fill="white"/>
<path d="M347 187.501L302.75 230.802V144.2L347 187.501Z" fill="white"/>
<path d="M131.5 151L195.5 169V256L131.5 221.5V151Z" fill="#336BE4"/>
<path d="M270.5 151L206.5 169V256L270.5 221.5V151Z" fill="#336BE4"/>
<path d="M131 142L201.746 121L270 142L201.746 161L131 142Z" fill="#336BE4"/>
<path d="M160.551 301V346H155.131V301H160.551ZM159.262 328.949L157.006 328.861C157.025 326.693 157.348 324.691 157.973 322.855C158.598 321 159.477 319.389 160.609 318.021C161.742 316.654 163.09 315.6 164.652 314.857C166.234 314.096 167.982 313.715 169.896 313.715C171.459 313.715 172.865 313.93 174.115 314.359C175.365 314.77 176.43 315.434 177.309 316.352C178.207 317.27 178.891 318.461 179.359 319.926C179.828 321.371 180.062 323.139 180.062 325.229V346H174.613V325.17C174.613 323.51 174.369 322.182 173.881 321.186C173.393 320.17 172.68 319.438 171.742 318.988C170.805 318.52 169.652 318.285 168.285 318.285C166.938 318.285 165.707 318.568 164.594 319.135C163.5 319.701 162.553 320.482 161.752 321.479C160.971 322.475 160.355 323.617 159.906 324.906C159.477 326.176 159.262 327.523 159.262 328.949ZM193.598 320.395V358.188H188.148V314.301H193.129L193.598 320.395ZM214.955 329.887V330.502C214.955 332.807 214.682 334.945 214.135 336.918C213.588 338.871 212.787 340.57 211.732 342.016C210.697 343.461 209.418 344.584 207.895 345.385C206.371 346.186 204.623 346.586 202.65 346.586C200.639 346.586 198.861 346.254 197.318 345.59C195.775 344.926 194.467 343.959 193.393 342.689C192.318 341.42 191.459 339.896 190.814 338.119C190.189 336.342 189.76 334.34 189.525 332.113V328.832C189.76 326.488 190.199 324.389 190.844 322.533C191.488 320.678 192.338 319.096 193.393 317.787C194.467 316.459 195.766 315.453 197.289 314.77C198.812 314.066 200.57 313.715 202.562 313.715C204.555 313.715 206.322 314.105 207.865 314.887C209.408 315.648 210.707 316.742 211.762 318.168C212.816 319.594 213.607 321.303 214.135 323.295C214.682 325.268 214.955 327.465 214.955 329.887ZM209.506 330.502V329.887C209.506 328.305 209.34 326.82 209.008 325.434C208.676 324.027 208.158 322.797 207.455 321.742C206.771 320.668 205.893 319.828 204.818 319.223C203.744 318.598 202.465 318.285 200.98 318.285C199.613 318.285 198.422 318.52 197.406 318.988C196.41 319.457 195.561 320.092 194.857 320.893C194.154 321.674 193.578 322.572 193.129 323.588C192.699 324.584 192.377 325.619 192.162 326.693V334.281C192.553 335.648 193.1 336.938 193.803 338.148C194.506 339.34 195.443 340.307 196.615 341.049C197.787 341.771 199.262 342.133 201.039 342.133C202.504 342.133 203.764 341.83 204.818 341.225C205.893 340.6 206.771 339.75 207.455 338.676C208.158 337.602 208.676 336.371 209.008 334.984C209.34 333.578 209.506 332.084 209.506 330.502ZM240.561 340.58V324.262C240.561 323.012 240.307 321.928 239.799 321.01C239.311 320.072 238.568 319.35 237.572 318.842C236.576 318.334 235.346 318.08 233.881 318.08C232.514 318.08 231.312 318.314 230.277 318.783C229.262 319.252 228.461 319.867 227.875 320.629C227.309 321.391 227.025 322.211 227.025 323.09H221.605C221.605 321.957 221.898 320.834 222.484 319.721C223.07 318.607 223.91 317.602 225.004 316.703C226.117 315.785 227.445 315.062 228.988 314.535C230.551 313.988 232.289 313.715 234.203 313.715C236.508 313.715 238.539 314.105 240.297 314.887C242.074 315.668 243.461 316.85 244.457 318.432C245.473 319.994 245.98 321.957 245.98 324.32V339.086C245.98 340.141 246.068 341.264 246.244 342.455C246.439 343.646 246.723 344.672 247.094 345.531V346H241.439C241.166 345.375 240.951 344.545 240.795 343.51C240.639 342.455 240.561 341.479 240.561 340.58ZM241.498 326.781L241.557 330.59H236.078C234.535 330.59 233.158 330.717 231.947 330.971C230.736 331.205 229.721 331.566 228.9 332.055C228.08 332.543 227.455 333.158 227.025 333.9C226.596 334.623 226.381 335.473 226.381 336.449C226.381 337.445 226.605 338.354 227.055 339.174C227.504 339.994 228.178 340.648 229.076 341.137C229.994 341.605 231.117 341.84 232.445 341.84C234.105 341.84 235.57 341.488 236.84 340.785C238.109 340.082 239.115 339.223 239.857 338.207C240.619 337.191 241.029 336.205 241.088 335.248L243.402 337.855C243.266 338.676 242.895 339.584 242.289 340.58C241.684 341.576 240.873 342.533 239.857 343.451C238.861 344.35 237.67 345.102 236.283 345.707C234.916 346.293 233.373 346.586 231.654 346.586C229.506 346.586 227.621 346.166 226 345.326C224.398 344.486 223.148 343.363 222.25 341.957C221.371 340.531 220.932 338.939 220.932 337.182C220.932 335.482 221.264 333.988 221.928 332.699C222.592 331.391 223.549 330.307 224.799 329.447C226.049 328.568 227.553 327.904 229.311 327.455C231.068 327.006 233.031 326.781 235.199 326.781H241.498Z" fill="white"/>
</g>
<defs>
<clipPath id="clip0_1138_83532">
<rect width="401" height="388" fill="white"/>
</clipPath>
</defs>
</svg>