<!-- @todo(sje): don't use this - just a placeholder -->
<svg width="280" height="280" viewBox="0 0 280 280" fill="none" xmlns="http://www.w3.org/2000/svg">
<g clip-path="url(#clip0_1569_13)">
<path d="M28.574 66.368L4.471 168.033C3.22759 173.278 4.47672 178.803 7.85541 183.003L74.092 265.334C77.4052 269.452 82.4068 271.848 87.6933 271.848H194.646C200.017 271.848 205.089 269.376 208.397 265.145L272.701 182.91C275.958 178.745 277.152 173.327 275.947 168.179L252.118 66.364C250.91 61.2019 247.421 56.8686 242.636 54.5862L148.531 9.7005C143.805 7.44648 138.317 7.43261 133.58 9.66269L38.1242 54.6013C33.3155 56.8652 29.8001 61.1965 28.574 66.368Z" fill="#336BE4" stroke="white" stroke-width="10"/>
<path d="M205.818 67.9578H74.5459V192.945H205.818V67.9578Z" fill="white"/>
<path d="M155.717 62.3718H124.296V72.1474H155.717V62.3718Z" fill="white"/>
<path d="M155.892 192.945H124.471V195.738H155.892V192.945Z" fill="white"/>
<path d="M140.181 34.4417L170.417 65.3394H109.946L140.181 34.4417Z" fill="white"/>
<path d="M140.181 226.462L109.946 195.564H170.417L140.181 226.462Z" fill="white"/>
<path d="M91.8271 104.267L136.515 116.836V177.584L91.8271 153.494V104.267Z" fill="#336BE4"/>
<path d="M188.885 104.267L144.196 116.836V177.584L188.885 153.494V104.267Z" fill="#336BE4"/>
<path d="M91.4785 97.9828L140.877 83.3195L188.536 97.9828L140.877 111.25L91.4785 97.9828Z" fill="#336BE4"/>
<path d="M116.454 252.372L122.509 233.654H126.376L118.418 255.788H115.881L116.454 252.372ZM111.401 233.654L117.641 252.474L118.07 255.788H115.533L107.515 233.654H111.401ZM133.976 237.909V264.299H130.171V233.654H133.649L133.976 237.909ZM148.889 244.537V244.967C148.889 246.576 148.698 248.069 148.316 249.447C147.934 250.81 147.375 251.997 146.639 253.006C145.916 254.015 145.023 254.8 143.959 255.359C142.895 255.918 141.675 256.197 140.297 256.197C138.892 256.197 137.651 255.966 136.574 255.502C135.496 255.038 134.582 254.363 133.833 253.476C133.083 252.59 132.483 251.526 132.032 250.285C131.596 249.045 131.296 247.647 131.132 246.092V243.801C131.296 242.164 131.603 240.698 132.053 239.402C132.503 238.107 133.097 237.002 133.833 236.088C134.582 235.161 135.49 234.459 136.554 233.982C137.617 233.49 138.845 233.245 140.236 233.245C141.626 233.245 142.861 233.517 143.938 234.063C145.016 234.595 145.923 235.359 146.659 236.354C147.395 237.35 147.948 238.543 148.316 239.934C148.698 241.312 148.889 242.846 148.889 244.537ZM145.084 244.967V244.537C145.084 243.433 144.968 242.396 144.736 241.428C144.504 240.446 144.143 239.587 143.652 238.85C143.174 238.1 142.561 237.514 141.811 237.091C141.061 236.655 140.167 236.436 139.131 236.436C138.176 236.436 137.345 236.6 136.635 236.927C135.94 237.255 135.346 237.698 134.855 238.257C134.365 238.803 133.962 239.43 133.649 240.139C133.349 240.834 133.124 241.557 132.974 242.307V247.605C133.246 248.56 133.628 249.461 134.119 250.306C134.61 251.138 135.265 251.813 136.083 252.331C136.901 252.835 137.931 253.088 139.172 253.088C140.195 253.088 141.074 252.877 141.811 252.454C142.561 252.018 143.174 251.424 143.652 250.674C144.143 249.924 144.504 249.065 144.736 248.096C144.968 247.115 145.084 246.071 145.084 244.967ZM166.942 252.004V240.61C166.942 239.737 166.765 238.98 166.41 238.339C166.07 237.684 165.551 237.18 164.856 236.825C164.161 236.47 163.301 236.293 162.278 236.293C161.324 236.293 160.485 236.456 159.762 236.784C159.053 237.111 158.494 237.541 158.085 238.073C157.689 238.605 157.492 239.177 157.492 239.791H153.707C153.707 239 153.912 238.216 154.321 237.439C154.73 236.661 155.316 235.959 156.08 235.332C156.857 234.691 157.785 234.186 158.862 233.818C159.953 233.436 161.167 233.245 162.504 233.245C164.112 233.245 165.531 233.517 166.758 234.063C168 234.609 168.968 235.434 169.663 236.539C170.372 237.629 170.727 239 170.727 240.65V250.961C170.727 251.697 170.788 252.481 170.911 253.313C171.047 254.145 171.245 254.861 171.504 255.461V255.788H167.556C167.366 255.352 167.215 254.772 167.106 254.05C166.997 253.313 166.942 252.631 166.942 252.004ZM167.597 242.369L167.638 245.028H163.813C162.735 245.028 161.774 245.117 160.928 245.294C160.083 245.458 159.373 245.71 158.801 246.051C158.228 246.392 157.792 246.821 157.492 247.339C157.191 247.844 157.041 248.438 157.041 249.119C157.041 249.815 157.198 250.449 157.512 251.022C157.826 251.595 158.296 252.051 158.924 252.393C159.565 252.719 160.349 252.884 161.276 252.884C162.435 252.884 163.458 252.638 164.344 252.147C165.231 251.656 165.933 251.056 166.452 250.347C166.984 249.637 167.27 248.949 167.311 248.281L168.927 250.101C168.831 250.674 168.572 251.308 168.15 252.004C167.727 252.699 167.161 253.367 166.452 254.008C165.756 254.636 164.924 255.161 163.956 255.584C163.001 255.993 161.924 256.197 160.724 256.197C159.223 256.197 157.908 255.904 156.776 255.318C155.657 254.731 154.784 253.947 154.157 252.965C153.544 251.97 153.236 250.858 153.236 249.631C153.236 248.444 153.468 247.401 153.932 246.501C154.395 245.587 155.064 244.831 155.936 244.23C156.809 243.616 157.859 243.153 159.087 242.839C160.315 242.526 161.685 242.369 163.199 242.369H167.597Z" fill="white"/>
</g>
<defs>
<clipPath id="clip0_1569_13">
<rect width="280" height="280" fill="white"/>
</clipPath>
</defs>
</svg>
