<svg width="280" height="280" viewBox="0 0 280 280" fill="none" xmlns="http://www.w3.org/2000/svg">
<g clip-path="url(#clip0_843_2)">
<path d="M275.339 111.739L274.946 110.733L236.835 11.2731C236.06 9.32372 234.687 7.67007 232.914 6.5494C231.139 5.44777 229.069 4.91719 226.983 5.0293C224.898 5.14141 222.897 5.8908 221.25 7.17631C219.622 8.49873 218.441 10.2906 217.868 12.3082L192.135 91.0363H87.9374L62.205 12.3082C61.6469 10.2797 60.4633 8.47875 58.8226 7.16173C57.1763 5.87622 55.1752 5.12682 53.0895 5.01471C51.0037 4.90261 48.9338 5.43319 47.1592 6.53482C45.3897 7.66002 44.0179 9.31222 43.2374 11.2585L5.05429 110.675L4.67522 111.681C-0.810915 126.015 -1.48809 141.744 2.7458 156.497C6.97969 171.25 15.8951 184.227 28.1478 193.47L28.2791 193.572L28.629 193.82L86.6836 237.296L115.405 259.033L132.9 272.242C134.946 273.796 137.445 274.637 140.015 274.637C142.584 274.637 145.083 273.796 147.129 272.242L164.624 259.033L193.346 237.296L251.75 193.558L251.896 193.441C264.121 184.196 273.016 171.233 277.243 156.5C281.471 141.767 280.803 126.06 275.339 111.739Z" fill="#E24329"/>
<path d="M275.339 111.739L274.946 110.733C256.376 114.544 238.877 122.41 223.7 133.768L140 197.057C168.502 218.619 193.316 237.354 193.316 237.354L251.721 193.616L251.867 193.499C264.109 184.254 273.018 171.283 277.251 156.537C281.485 141.792 280.814 126.07 275.339 111.739Z" fill="#FC6D26"/>
<path d="M86.6836 237.354L115.405 259.091L132.9 272.3C134.946 273.854 137.445 274.695 140.015 274.695C142.584 274.695 145.083 273.854 147.129 272.3L164.624 259.091L193.346 237.354C193.346 237.354 168.502 218.561 140 197.057C111.498 218.561 86.6836 237.354 86.6836 237.354Z" fill="#FCA326"/>
<path d="M56.2858 133.768C41.1204 122.387 23.6254 114.501 5.05429 110.675L4.67522 111.681C-0.810915 126.015 -1.48809 141.744 2.7458 156.497C6.97969 171.25 15.8951 184.227 28.1478 193.47L28.2791 193.572L28.629 193.82L86.6836 237.296C86.6836 237.296 111.468 218.561 140 196.998L56.2858 133.768Z" fill="#FC6D26"/>
</g>
<defs>
<clipPath id="clip0_843_2">
<rect width="280" height="280" fill="white"/>
</clipPath>
</defs>
</svg>
