<svg xmlns="http://www.w3.org/2000/svg" width="280" height="280" fill="none"><g clip-path="url(#a)"><path stroke="#23103A" stroke-width="5.82" d="M216.451 277.217c27.539-15.265 15.814-89.076-26.19-164.856C148.252 36.575 91.871-12.481 64.331 2.783c-27.54 15.265-15.814 89.076 26.19 164.861 42.009 75.781 98.391 124.837 125.93 109.573Z"/><path fill="#F26722" d="m140.391 233.459 12.223 9.53 9.597-12.156 14.142 6.319 6.396-14.116 15.244 2.734 2.832-15.229 15.454-.979-.882-15.465 14.777-4.637-4.554-14.809 13.233-8.053-7.991-13.274 10.91-10.992-10.91-10.998 7.991-13.274-13.233-8.058 4.554-14.803-14.782-4.637.877-15.47-15.455-.975-2.831-15.234-15.244 2.74-6.392-14.112-14.136 6.32-9.607-12.157-12.213 9.53-12.228-9.53-9.597 12.162-14.147-6.325-6.39 14.116-15.25-2.734-2.822 15.23-15.46.979.883 15.47-14.777 4.637 4.56 14.803-13.234 8.053 7.991 13.275L39 142.332l10.92 10.997-7.991 13.275 13.234 8.058-4.555 14.803 14.782 4.637-.882 15.47 15.46.974 2.826 15.234 15.244-2.739 6.391 14.111 14.137-6.319 9.607 12.156z"/><path fill="#F78F1E" d="M140.388 219.338c42.533 0 77.012-34.479 77.012-77.012 0-42.532-34.485-77.011-77.012-77.011-42.532 0-77.011 34.48-77.011 77.011 0 42.533 34.474 77.012 77.011 77.012"/><path stroke="#23103A" stroke-width="5.82" d="M64.331 2.784c-27.54 15.265-15.814 89.075 26.19 164.856 40.327 72.754 93.903 120.872 122.488 111.1"/></g><defs><clipPath id="a"><path fill="#fff" d="M0 0h280v280H0z"/></clipPath></defs></svg>