<svg xmlns="http://www.w3.org/2000/svg" width="280" height="280" fill="none"><path fill="url(#a)" d="M267.824 123.821c-.496-4.714-1.241-10.173-2.73-16.129-1.489-5.955-3.97-12.407-7.196-19.354-3.474-6.7-7.692-13.896-13.399-20.596-2.234-2.73-4.715-5.211-7.196-7.94 3.97-15.633-4.715-29.28-4.715-29.28-15.136-.993-24.566 4.714-28.04 7.195-.496-.248-1.24-.496-1.737-.744-2.481-.993-5.211-1.985-7.94-2.978-2.73-.744-5.459-1.737-8.189-2.233-2.729-.745-5.707-1.24-8.685-1.737-.496 0-.992-.248-1.488-.248C170.057 8.933 151.199 0 151.199 0c-21.589 13.896-25.807 32.506-25.807 32.506s0 .496-.248.993c-1.241.248-2.233.744-3.474.992-1.489.497-3.226.993-4.715 1.737s-3.225 1.241-4.714 1.985a167 167 0 0 0-9.43 4.715c-2.977 1.737-5.955 3.474-8.685 5.46-.496-.249-.744-.497-.744-.497-29.032-11.166-54.839 2.233-54.839 2.233-2.233 31.017 11.663 50.372 14.392 53.846-.744 1.985-1.24 3.722-1.985 5.707-2.233 6.948-3.722 14.144-4.714 21.589-.248.992-.248 2.233-.496 3.225C18.94 147.643 11 174.938 11 174.938c22.333 25.806 48.635 27.295 48.635 27.295 3.226 5.956 7.196 11.663 11.415 16.874 1.737 2.233 3.722 4.218 5.707 6.451-8.189 23.325 1.24 42.928 1.24 42.928 25.063.993 41.44-10.918 44.914-13.647l7.444 2.233c7.692 1.985 15.633 3.226 23.325 3.474h10.174c11.662 16.873 32.506 19.107 32.506 19.107 14.64-15.633 15.633-30.77 15.633-34.244v-1.488c2.977-2.234 5.955-4.467 8.933-6.948 5.955-5.211 10.918-11.415 15.384-17.866.496-.497.745-1.241 1.241-1.737 16.625.992 28.288-10.422 28.288-10.422-2.73-17.37-12.655-25.807-14.641-27.295l-.248-.249-.248-.248-.248-.248c0-.992.248-1.985.248-3.226.248-1.985.248-3.722.248-5.707v-7.196c0-.496 0-.992-.248-1.489l-.248-1.489-.248-1.488c-.248-1.985-.744-3.722-.993-5.708-1.737-7.444-4.714-14.64-8.436-20.843-3.971-6.452-8.685-11.911-14.144-16.874-5.459-4.714-11.415-8.685-17.866-11.414a62.6 62.6 0 0 0-19.603-5.46c-3.226-.495-6.7-.495-9.926-.495h-4.963c-1.737.248-3.474.496-4.962.744-6.7 1.24-12.904 3.722-18.363 6.948s-10.173 7.444-14.144 12.159c-3.97 4.714-6.947 9.677-8.933 15.136-1.985 5.211-3.225 10.918-3.474 16.129v5.956c0 .744 0 1.24.249 1.985a38.4 38.4 0 0 0 1.488 7.692q2.234 7.444 6.7 13.399c2.978 3.971 6.204 6.948 9.926 9.43a43.8 43.8 0 0 0 11.414 5.459q5.955 1.86 11.166 1.489h5.211c.497 0 .993-.249 1.241-.249.496 0 .744-.248 1.241-.248.744-.248 1.737-.496 2.481-.744 1.489-.496 2.978-1.241 4.467-1.737q2.232-1.116 3.722-2.233c.248-.248.744-.497.992-.745 1.241-.992 1.489-2.729.497-3.97-.993-.992-2.482-1.241-3.723-.744-.248.248-.496.248-.992.496-.993.496-2.233.992-3.226 1.241-1.241.248-2.481.744-3.722.992-.744 0-1.241.248-1.985.248h-5.211c-.248 0-.744 0-.993-.248-2.729-.496-5.707-1.241-8.436-2.481-2.73-1.241-5.459-2.978-7.693-5.211-2.481-2.233-4.466-4.715-6.203-7.692s-2.73-6.204-3.226-9.43c-.248-1.737-.496-3.474-.248-5.211v-2.729c0-.993.248-1.737.496-2.73 1.241-7.444 4.963-14.64 10.67-20.099 1.489-1.489 2.978-2.729 4.715-3.722q2.605-1.861 5.211-2.978c1.737-.744 3.722-1.489 5.707-1.985s3.97-.992 5.955-.992c.993 0 1.985-.248 2.978-.248h2.978c2.233.248 4.466.496 6.451.992 4.219.993 8.437 2.481 12.407 4.715 7.941 4.466 14.64 11.166 18.611 19.355a45.4 45.4 0 0 1 4.218 13.151c.248 1.241.248 2.233.496 3.474v6.451c0 1.241-.248 2.482-.248 3.723-.248 1.24-.248 2.481-.496 3.722l-.745 3.722c-.496 2.481-1.488 4.714-2.233 7.196-1.737 4.714-4.218 9.181-7.196 13.151-5.955 8.189-14.144 14.888-23.325 19.107-4.715 1.985-9.429 3.722-14.392 4.466a38 38 0 0 1-7.444.745h-3.97c-1.241 0-2.73 0-3.971-.248a85.4 85.4 0 0 1-15.88-2.978 77.8 77.8 0 0 1-14.889-5.955c-9.429-4.963-17.866-12.159-24.566-20.348-3.225-4.218-6.203-8.685-8.684-13.399-2.482-4.715-4.219-9.678-5.708-14.64-1.489-4.963-2.233-10.174-2.481-15.385v-7.692c0-2.482.248-5.211.744-7.941.249-2.729.745-5.211 1.241-7.94s1.24-5.211 1.985-7.941c1.489-5.211 3.226-10.173 5.46-14.888 4.466-9.43 10.173-17.866 16.873-24.566a50 50 0 0 1 5.459-4.715c.744-.744 2.481-2.233 4.466-3.473 1.985-1.241 3.97-2.482 6.204-3.474.992-.497 1.985-.993 3.226-1.49.496-.247.992-.495 1.737-.744.496-.248.992-.496 1.736-.744 2.234-.993 4.467-1.737 6.7-2.481.497-.249 1.241-.249 1.737-.497s1.241-.248 1.737-.496c1.241-.248 2.233-.496 3.474-.992.496-.249 1.241-.249 1.737-.497.496 0 1.241-.248 1.737-.248s1.241-.248 1.737-.248l.993-.248.992-.248c.496 0 1.241-.248 1.737-.248.745 0 1.241-.249 1.985-.249.497 0 1.489-.248 1.985-.248.497 0 .745 0 1.241-.248h1.737c.744 0 1.241 0 1.985-.248h10.174c4.466.248 8.933.744 13.151 1.489 8.437 1.489 16.626 4.218 23.822 7.94 7.196 3.474 13.895 7.94 19.354 12.655.248.248.745.497.993.993.248.248.744.496.992.992.745.497 1.241 1.241 1.986 1.737.744.497 1.24 1.241 1.985 1.737.496.745 1.24 1.241 1.737 1.986 2.481 2.48 4.714 5.21 6.699 7.692 3.971 5.211 7.196 10.422 9.678 15.384.248.249.248.497.496.993.248.248.248.496.496.992.249.497.497 1.241.993 1.737.248.497.496 1.241.744 1.737.249.497.497 1.241.745 1.737.992 2.234 1.737 4.467 2.481 6.7 1.241 3.474 1.985 6.452 2.73 8.933.248.993 1.24 1.737 2.233 1.737 1.241 0 1.985-.992 1.985-2.233-.248-2.978-.248-6.204-.496-9.926"/><defs><linearGradient id="a" x1="139.66" x2="139.66" y1="342.706" y2="87.49" gradientUnits="userSpaceOnUse"><stop stop-color="#FCEE1F"/><stop offset="1" stop-color="#F15B2A"/></linearGradient></defs></svg>