<svg width="280" height="280" viewBox="0 0 280 280" fill="none" xmlns="http://www.w3.org/2000/svg">
<g clip-path="url(#clip0_1752_2)">
<path d="M58.1923 252.885C57.6154 268.077 45.5 280 30.5 280C14.7308 280 3 267.308 3 251.731C3 236.154 15.6923 223.462 31.2692 223.462C38.1923 223.462 45.1154 226.538 50.8846 231.923L46.4615 237.5C42.0385 233.654 36.6538 230.962 31.2692 230.962C19.9231 230.962 10.5 240.192 10.5 251.731C10.5 263.462 19.3462 272.5 30.5 272.5C40.5 272.5 48.3846 265.192 50.1154 255.577H27.2308V248.846H58.1923V252.885Z" fill="#565656"/>
<path d="M84.3466 249.038H80.1158C75.5004 249.038 71.6543 252.885 71.6543 257.5V279.423H64.1543V241.731H70.3081V244.808C72.4235 242.692 75.5004 241.731 79.1543 241.731H87.2312L84.3466 249.038Z" fill="#565656"/>
<path d="M125.499 279.423H118.96V274.615C113.96 279.423 106.268 281.731 98.3835 278.269C92.6142 275.769 88.1912 270.385 87.0373 264.038C84.7296 251.923 94.1527 241.154 106.076 241.154C111.076 241.154 115.691 243.269 118.96 246.538V241.731H125.499V279.423ZM117.807 263.462C119.537 255.769 113.768 248.846 106.268 248.846C99.7296 248.846 94.5373 254.231 94.5373 260.577C94.5373 267.885 100.883 273.462 108.383 272.308C112.807 271.538 116.653 267.885 117.807 263.462Z" fill="#565656"/>
<path d="M140.501 239.808V241.923H152.424V248.462H140.501V279.423H133.193V240C133.193 231.731 139.155 226.923 146.655 226.923H155.693L152.616 234.039H146.655C143.193 233.846 140.501 236.539 140.501 239.808Z" fill="#565656"/>
<path d="M192.424 279.423H186.078V274.615C181.078 279.423 173.385 281.731 165.501 278.269C159.731 275.769 155.308 270.385 154.155 264.038C151.847 251.923 161.27 241.154 173.193 241.154C178.193 241.154 182.808 243.269 186.078 246.538V241.731H192.616V279.423H192.424ZM184.731 263.462C186.462 255.769 180.693 248.846 173.193 248.846C166.655 248.846 161.462 254.231 161.462 260.577C161.462 267.885 167.808 273.462 175.308 272.308C179.924 271.538 183.578 267.885 184.731 263.462Z" fill="#565656"/>
<path d="M232.614 257.308V279.423H225.114V257.115C225.114 252.5 221.268 248.654 216.653 248.654C211.845 248.654 208.191 252.5 208.191 257.115V279.423H200.691V241.731H206.845V245C209.538 242.5 213.191 241.154 216.845 241.154C225.691 241.346 232.614 248.462 232.614 257.308Z" fill="#565656"/>
<path d="M276.846 279.423H270.499V274.615C265.499 279.423 257.807 281.731 249.923 278.269C244.153 275.769 239.73 270.385 238.576 264.038C236.269 251.923 245.692 241.154 257.615 241.154C262.615 241.154 267.23 243.269 270.499 246.538V241.731H277.038V279.423H276.846ZM269.153 263.462C270.884 255.769 265.115 248.846 257.615 248.846C251.076 248.846 245.884 254.231 245.884 260.577C245.884 267.885 252.23 273.462 259.73 272.308C264.346 271.538 267.999 267.885 269.153 263.462Z" fill="#565656"/>
<path d="M239.347 95.9615C238.962 92.3077 238.386 88.0769 237.232 83.4615C236.078 78.8461 234.155 73.8461 231.655 68.4615C228.962 63.2692 225.693 57.6923 221.27 52.5C219.539 50.3846 217.616 48.4615 215.693 46.3461C218.77 34.2308 212.039 23.6538 212.039 23.6538C200.309 22.8846 193.001 27.3077 190.309 29.2308C189.924 29.0385 189.347 28.8461 188.962 28.6538C187.039 27.8846 184.924 27.1154 182.809 26.3461C180.693 25.7692 178.578 25 176.462 24.6154C174.347 24.0385 172.039 23.6538 169.732 23.2692C169.347 23.2692 168.962 23.0769 168.578 23.0769C163.578 6.92308 148.962 0 148.962 0C132.232 10.7692 128.962 25.1923 128.962 25.1923C128.962 25.1923 128.962 25.5769 128.77 25.9615C127.809 26.1538 127.039 26.5385 126.078 26.7308C124.924 27.1154 123.578 27.5 122.424 28.0769C121.27 28.6538 119.924 29.0385 118.77 29.6154C116.27 30.7692 113.962 31.9231 111.462 33.2692C109.155 34.6154 106.847 35.9615 104.732 37.5C104.347 37.3077 104.155 37.1154 104.155 37.1154C81.6547 28.4615 61.6547 38.8461 61.6547 38.8461C59.924 62.8846 70.6932 77.8846 72.8086 80.5769C72.2317 82.1154 71.8471 83.4615 71.2701 85C69.5394 90.3846 68.3855 95.9615 67.6163 101.731C67.424 102.5 67.424 103.462 67.2317 104.231C46.4624 114.423 40.3086 135.577 40.3086 135.577C57.6163 155.577 78.0009 156.731 78.0009 156.731C80.5009 161.346 83.5778 165.769 86.847 169.808C88.1932 171.538 89.7317 173.077 91.2701 174.808C84.924 192.885 92.2317 208.077 92.2317 208.077C111.655 208.846 124.347 199.615 127.039 197.5C128.962 198.077 130.886 198.654 132.809 199.231C138.77 200.769 144.924 201.731 150.886 201.923C152.424 201.923 153.962 201.923 155.501 201.923H156.27H156.847H157.809H158.77C167.809 215 183.962 216.731 183.962 216.731C195.309 204.615 196.078 192.885 196.078 190.192C196.078 190.192 196.078 190.192 196.078 190C196.078 189.808 196.078 189.615 196.078 189.615C196.078 189.423 196.078 189.231 196.078 189.038C198.386 187.308 200.693 185.577 203.001 183.654C207.616 179.615 211.462 174.808 214.924 169.808C215.309 169.423 215.501 168.846 215.885 168.462C228.77 169.231 237.809 160.385 237.809 160.385C235.693 146.923 228.001 140.385 226.462 139.231C226.462 139.231 226.462 139.231 226.27 139.038L226.078 138.846L225.886 138.654C225.886 137.885 226.078 137.115 226.078 136.154C226.27 134.615 226.27 133.269 226.27 131.731V130.577V130V129.808C226.27 129.423 226.27 129.615 226.27 129.423V128.462V127.308C226.27 126.923 226.27 126.538 226.27 126.154C226.27 125.769 226.27 125.385 226.078 125L225.886 123.846L225.693 122.692C225.501 121.154 225.116 119.808 224.924 118.269C223.578 112.5 221.27 106.923 218.385 102.115C215.309 97.1154 211.655 92.8846 207.424 89.0384C203.193 85.3846 198.578 82.3077 193.578 80.1923C188.578 77.8846 183.578 76.5384 178.385 75.9615C175.885 75.5769 173.193 75.5769 170.693 75.5769H169.732H169.539H169.155H168.77H167.809C167.424 75.5769 167.039 75.5769 166.847 75.5769C165.501 75.7692 164.155 75.9615 163.001 76.1538C157.809 77.1154 153.001 79.0385 148.77 81.5385C144.539 84.0385 140.886 87.3077 137.809 90.9615C134.732 94.6154 132.424 98.4615 130.886 102.692C129.347 106.731 128.386 111.154 128.193 115.192C128.193 116.154 128.193 117.308 128.193 118.269C128.193 118.462 128.193 118.846 128.193 119.038V119.808C128.193 120.385 128.193 120.769 128.386 121.346C128.578 123.462 128.962 125.385 129.539 127.308C130.693 131.154 132.424 134.615 134.732 137.692C137.039 140.769 139.539 143.077 142.424 145C145.309 146.923 148.193 148.269 151.27 149.231C154.347 150.192 157.232 150.577 159.924 150.385C160.309 150.385 160.693 150.385 160.886 150.385C161.078 150.385 161.27 150.385 161.462 150.385C161.655 150.385 161.847 150.385 162.039 150.385C162.424 150.385 162.616 150.385 163.001 150.385H163.193H163.386C163.578 150.385 163.77 150.385 163.962 150.385C164.347 150.385 164.732 150.192 164.924 150.192C165.309 150.192 165.501 150 165.885 150C166.462 149.808 167.232 149.615 167.809 149.423C168.962 149.038 170.116 148.462 171.27 148.077C172.424 147.5 173.386 146.923 174.155 146.346C174.347 146.154 174.732 145.962 174.924 145.769C175.886 145 176.078 143.654 175.309 142.692C174.539 141.923 173.385 141.731 172.424 142.115C172.232 142.308 172.039 142.308 171.655 142.5C170.885 142.885 169.924 143.269 169.155 143.462C168.193 143.654 167.232 144.038 166.27 144.231C165.693 144.231 165.309 144.423 164.732 144.423C164.539 144.423 164.155 144.423 163.962 144.423C163.77 144.423 163.386 144.423 163.193 144.423C163.001 144.423 162.616 144.423 162.424 144.423C162.039 144.423 161.847 144.423 161.462 144.423H161.27H161.078C160.885 144.423 160.886 144.423 160.693 144.423C160.501 144.423 160.116 144.423 159.924 144.231C157.809 143.846 155.501 143.269 153.385 142.308C151.27 141.346 149.155 140 147.424 138.269C145.501 136.538 143.962 134.615 142.616 132.308C141.27 130 140.501 127.5 140.116 125C139.924 123.654 139.732 122.308 139.924 120.962C139.924 120.577 139.924 120.192 139.924 119.808V119.615V119.423C139.924 119.231 139.924 119.038 139.924 118.846C139.924 118.077 140.116 117.5 140.309 116.731C141.27 110.962 144.155 105.385 148.578 101.154C149.732 100 150.886 99.0384 152.232 98.2692C153.578 97.3077 154.924 96.5384 156.27 95.9615C157.616 95.3846 159.155 94.8077 160.693 94.4231C162.232 94.0384 163.77 93.6538 165.309 93.6538C166.078 93.6538 166.847 93.4615 167.616 93.4615C167.809 93.4615 168.001 93.4615 168.193 93.4615H168.77H169.155H169.347H169.924C171.655 93.6538 173.386 93.8461 174.924 94.2308C178.193 95 181.462 96.1538 184.539 97.8846C190.693 101.346 195.886 106.538 198.962 112.885C200.501 115.962 201.655 119.423 202.232 123.077C202.424 124.038 202.424 124.808 202.616 125.769V126.346V126.923C202.616 127.115 202.616 127.308 202.616 127.5C202.616 127.692 202.616 127.885 202.616 128.077V128.654V129.231C202.616 129.615 202.616 130.385 202.616 130.769C202.616 131.731 202.424 132.692 202.424 133.654C202.232 134.615 202.232 135.577 202.039 136.538C201.847 137.5 201.655 138.462 201.462 139.423C201.078 141.346 200.309 143.077 199.732 145C198.386 148.654 196.462 152.115 194.155 155.192C189.539 161.538 183.193 166.731 176.078 170C172.424 171.538 168.77 172.885 164.924 173.462C163.001 173.846 161.078 174.038 159.155 174.038H158.77H158.386H157.809H156.847H156.27H156.078C155.116 174.038 153.962 174.038 153.001 173.846C148.77 173.462 144.732 172.692 140.693 171.538C136.655 170.385 132.809 168.846 129.155 166.923C121.847 163.077 115.309 157.5 110.116 151.154C107.616 147.885 105.309 144.423 103.386 140.769C101.462 137.115 100.116 133.269 98.9624 129.423C97.8086 125.577 97.2317 121.538 97.0394 117.5V116.731V116.538V116.346V115.962V115.385V115.192V115V114.615V113.654V113.462V113.077C97.0394 112.5 97.0394 112.115 97.0394 111.538C97.0394 109.615 97.2317 107.5 97.6163 105.385C97.8086 103.269 98.1932 101.346 98.5778 99.2308C98.9624 97.1154 99.5394 95.1923 100.116 93.0769C101.27 89.0385 102.616 85.1923 104.347 81.5385C107.809 74.2308 112.232 67.6923 117.424 62.5C118.77 61.1538 120.116 60 121.655 58.8461C122.232 58.2692 123.578 57.1154 125.116 56.1538C126.655 55.1923 128.193 54.2308 129.924 53.4615C130.693 53.0769 131.462 52.6923 132.424 52.3077C132.809 52.1154 133.193 51.9231 133.77 51.7308C134.155 51.5385 134.539 51.3461 135.116 51.1538C136.847 50.3846 138.578 49.8077 140.309 49.2308C140.693 49.0385 141.27 49.0385 141.655 48.8461C142.039 48.6538 142.616 48.6538 143.001 48.4615C143.962 48.2692 144.732 48.0769 145.693 47.6923C146.078 47.5 146.655 47.5 147.039 47.3077C147.424 47.3077 148.001 47.1154 148.386 47.1154C148.77 47.1154 149.347 46.9231 149.732 46.9231L150.501 46.7308L151.27 46.5385C151.655 46.5385 152.232 46.3461 152.616 46.3461C153.193 46.3461 153.578 46.1538 154.155 46.1538C154.539 46.1538 155.309 45.9615 155.693 45.9615C156.078 45.9615 156.27 45.9615 156.655 45.7692H157.232H157.616H158.001C158.578 45.7692 158.962 45.7692 159.539 45.5769H160.309H160.501H160.886C161.27 45.5769 161.847 45.5769 162.232 45.5769C163.962 45.5769 165.693 45.5769 167.424 45.5769C170.886 45.7692 174.347 46.1538 177.616 46.7308C184.155 47.8846 190.501 50 196.078 52.8846C201.655 55.5769 206.847 59.0384 211.078 62.6923C211.27 62.8846 211.655 63.0769 211.847 63.4615C212.039 63.6538 212.424 63.8461 212.616 64.2308C213.193 64.6154 213.578 65.1923 214.155 65.5769C214.732 65.9615 215.116 66.5384 215.693 66.9231C216.078 67.5 216.655 67.8846 217.039 68.4615C218.962 70.3846 220.693 72.5 222.232 74.4231C225.309 78.4615 227.809 82.5 229.732 86.3461C229.924 86.5385 229.924 86.7308 230.116 87.1154C230.309 87.3077 230.309 87.5 230.501 87.8846C230.693 88.2692 230.885 88.8461 231.27 89.2308C231.462 89.6154 231.655 90.1923 231.847 90.5769C232.039 90.9615 232.232 91.5384 232.424 91.9231C233.193 93.6538 233.77 95.3846 234.347 97.1154C235.309 99.8077 235.885 102.115 236.462 104.038C236.655 104.808 237.424 105.385 238.193 105.385C239.155 105.385 239.732 104.615 239.732 103.654C239.539 101.346 239.539 98.8461 239.347 95.9615Z" fill="url(#paint0_linear_1752_2)"/>
</g>
<defs>
<linearGradient id="paint0_linear_1752_2" x1="140.02" y1="265.597" x2="140.02" y2="67.8048" gradientUnits="userSpaceOnUse">
<stop stop-color="#FCEE1F"/>
<stop offset="1" stop-color="#F15B2A"/>
</linearGradient>
<clipPath id="clip0_1752_2">
<rect width="280" height="280" fill="white"/>
</clipPath>
</defs>
</svg>
