<svg xmlns="http://www.w3.org/2000/svg" fill="none" viewBox="0 0 280 280"><path fill="#3F458B" d="M140.346 141.801h-34.142l9.445 14.651h-14.661l57.44 89.176h51.495zm-24.766 27.882-6.98-10.826h10.835l6.98 10.826zm6.822-10.047-4.9-7.591h7.602l4.9 7.591zm7.543-8.577-5.058-7.858h7.858l5.067 7.858z"/><path fill="#257AA9" d="m201.343 100.323-36.39 51.554h51.495l34.832-51.554z"/><path fill="#3F458B" d="m230.062 139.592-28.187-39.575 49.405.306 28.719 39.269z"/><path fill="#257AA9" d="M161.701 34 91.543 141.791h48.813L184.88 71.85zm68.362 105.592-71.637 106.036h51.494L280 139.592z"/><path fill="#3F458B" d="M184.878 71.85 161.699 34h46.93l25.664 38.145zM29.006 151.266l11.86 18.417h18.417l-11.87-18.417zm15.133-11.575 8.33 12.916h12.916l-8.33-12.916zm12.541-15.035 8.617 13.369h13.359l-8.607-13.369zm-40.62 22.538h24.925l-16.06-24.924H0z"/></svg>