<svg xmlns="http://www.w3.org/2000/svg" width="280" height="280" fill="none"><path fill="#231F20" d="M113.624 24.847a16.66 16.66 0 0 0-11.973-5.033 16.44 16.44 0 0 0-11.908 5.033h-.078a17.476 17.476 0 0 0 0 24.3l.078.09a16.5 16.5 0 0 0 11.908 4.968 16.72 16.72 0 0 0 11.973-4.967v-.092a17.473 17.473 0 0 0 0-24.3m-11.973 235.402a16.85 16.85 0 0 0 11.973-5.006v-.091a17.07 17.07 0 0 0 4.915-12.105 17.28 17.28 0 0 0-4.915-12.182 16.54 16.54 0 0 0-11.973-5.046 16.3 16.3 0 0 0-11.908 5.046h-.078a17.34 17.34 0 0 0-4.915 12.182 17.14 17.14 0 0 0 4.915 12.144l.078.091a16.65 16.65 0 0 0 11.908 5.007zm92.062-52.115a16.7 16.7 0 0 0 10.3-7.987l.301-.614a17.17 17.17 0 0 0 1.307-12.457 17 17 0 0 0-7.843-10.457l-.248-.157a16.81 16.81 0 0 0-22.849 6.47 17.37 17.37 0 0 0 6.17 23.529 16.73 16.73 0 0 0 12.836 1.673zm-74.729-85.735a24.156 24.156 0 0 0-34.64 0 24.96 24.96 0 0 0-7.136 17.594 25.27 25.27 0 0 0 7.136 17.672 24.27 24.27 0 0 0 34.64 0 25.27 25.27 0 0 0 7.137-17.672 24.97 24.97 0 0 0-7.137-17.594m-9.752-29.293a46.1 46.1 0 0 1 25.411 13.358 44 44 0 0 1 3.098 3.491l16.875-9.935a37.36 37.36 0 0 1 16.431-43.606l.288-.183a35.7 35.7 0 0 1 27.358-3.568 36.52 36.52 0 0 1 22.156 17.306 37.62 37.62 0 0 1 3.647 28.104 36.76 36.76 0 0 1-16.993 22.522l-2.3 1.385h-.236a36.05 36.05 0 0 1-42.795-8.679l-16.849 9.908a48 48 0 0 1 3.006 16.771 48.7 48.7 0 0 1-3.006 16.849l16.849 9.868a35.9 35.9 0 0 1 17.659-11.019 35.48 35.48 0 0 1 27.672 3.726l.562.274a37 37 0 0 1 16.431 22.221 37.62 37.62 0 0 1-3.647 28.091l-.314.614a36.78 36.78 0 0 1-21.79 16.771 36.15 36.15 0 0 1-27.672-3.712 37.346 37.346 0 0 1-16.365-43.62l-16.875-9.908a46 46 0 0 1-3.098 3.438 45.93 45.93 0 0 1-25.411 13.281v19.842a36 36 0 0 1 18.195 10.052 37.397 37.397 0 0 1 0 52.285v.105a35.986 35.986 0 0 1-51.527 0v-.105a37.396 37.396 0 0 1 0-52.285 36.06 36.06 0 0 1 18.182-10.052v-19.79a45.84 45.84 0 0 1-25.476-13.281 47.944 47.944 0 0 1 0-67.108 46.04 46.04 0 0 1 25.385-13.411V73.342A36.8 36.8 0 0 1 75.9 63.264a37.46 37.46 0 0 1 0-52.39 35.96 35.96 0 0 1 51.528 0 37.46 37.46 0 0 1 0 52.39 36.7 36.7 0 0 1-18.196 10.078zm94.781-13.176-.144-.223a17 17 0 0 0-10.156-7.842 16.65 16.65 0 0 0-12.862 1.712 17 17 0 0 0-7.909 10.457 17.48 17.48 0 0 0 1.713 13.071l.065.105a16.68 16.68 0 0 0 10.209 7.843 16.28 16.28 0 0 0 12.823-1.686l.209-.105a17.14 17.14 0 0 0 7.673-10.326 17.52 17.52 0 0 0-1.647-13.072"/></svg>