<svg width="103" height="103" viewBox="0 0 103 103" fill="none" xmlns="http://www.w3.org/2000/svg">
<path d="M0.0750008 90.2C0.0750008 97.24 5.835 103 12.875 103C16.459 103 19.659 101.592 21.963 99.288L51.275 69.976L80.587 99.288C82.891 101.592 86.219 103 89.675 103C96.715 103 102.475 97.24 102.475 90.2C102.475 86.744 101.067 83.416 98.763 81.112L69.451 51.8L98.763 22.488C101.067 20.184 102.475 16.984 102.475 13.4C102.475 6.35999 96.715 0.599998 89.675 0.599998C86.219 0.599998 82.891 2.008 80.587 4.312L25.675 59.224V13.4C25.675 6.35999 19.915 0.599998 12.875 0.599998C5.835 0.599998 0.0750008 6.35999 0.0750008 13.4V90.2ZM12.875 26.2C15.819 26.2 18.507 25.304 20.555 23.64V64.344L5.195 79.704V23.64C7.371 25.304 10.059 26.2 12.875 26.2ZM60.363 42.712C58.443 40.92 56.011 39.64 53.195 39.128L77.003 15.32C77.899 20.824 82.379 25.304 87.883 26.072L65.867 48.216L60.363 42.712ZM88.011 77.528C82.379 78.296 77.899 82.776 77.003 88.28L54.987 66.264L65.867 55.384L88.011 77.528ZM47.691 66.392L25.675 88.408V66.648L38.603 53.72C39.115 56.536 40.395 58.968 42.187 60.888L47.691 66.392ZM5.195 90.2C5.195 85.976 8.651 82.52 12.875 82.52C17.099 82.52 20.555 85.976 20.555 90.2C20.555 94.424 17.099 97.88 12.875 97.88C8.651 97.88 5.195 94.424 5.195 90.2ZM81.995 13.4C81.995 9.17599 85.451 5.71999 89.675 5.71999C93.899 5.71999 97.355 9.17599 97.355 13.4C97.355 17.624 93.899 21.08 89.675 21.08C85.451 21.08 81.995 17.624 81.995 13.4ZM89.675 97.88C85.451 97.88 81.995 94.424 81.995 90.2C81.995 85.976 85.451 82.52 89.675 82.52C93.899 82.52 97.355 85.976 97.355 90.2C97.355 94.424 93.899 97.88 89.675 97.88ZM51.275 59.48C47.051 59.48 43.595 56.024 43.595 51.8C43.595 47.576 47.051 44.12 51.275 44.12C55.499 44.12 58.955 47.576 58.955 51.8C58.955 56.024 55.499 59.48 51.275 59.48ZM5.195 13.4C5.195 9.17599 8.651 5.71999 12.875 5.71999C17.099 5.71999 20.555 9.17599 20.555 13.4C20.555 17.624 17.099 21.08 12.875 21.08C8.651 21.08 5.195 17.624 5.195 13.4ZM20.555 79.96C18.891 78.808 16.971 77.912 14.795 77.528L20.555 71.768V79.96Z" fill="#2C0548"/>
</svg>
