<svg width="280" height="280" viewBox="0 0 280 280" fill="none" xmlns="http://www.w3.org/2000/svg">
<path d="M244.861 195.013L244.813 146.264L237.018 173.499L229.234 146.388L229.187 183.394L203.771 164.332L205.698 162.888L205.61 68.003L229.767 68.0659L237.009 93.432L244.261 68.0319L280 68.148L268.273 76.9108L268.252 212.649L244.861 195.013ZM11.866 76.8884L0 68L66.8835 68.0907L74.5385 73.9385L74.5448 162.856L76.5728 164.325L11.8814 212.867L11.866 76.8884ZM51.1192 146.258L51.0937 94.9428L49.3007 93.4787L35.3928 93.546L35.3623 158.075L51.1192 146.258ZM76.5188 160.055L76.5069 73.9293L84.3524 68.0499L131.302 68.0473L139.132 73.9509L139.161 173.611L116.957 190.311L76.5188 160.055ZM113.707 93.4279L101.866 93.51L100.016 94.9312L100.042 146.282L115.596 157.947L115.637 94.9592L113.707 93.4279ZM141.175 173.705L141.118 73.9051L148.938 68.032L195.95 68.0769L203.819 73.9568L203.765 159.883L163.543 190.292L141.175 173.705ZM180.284 146.248L180.279 94.9099L178.3 93.3977L166.477 93.4365L164.576 94.9002L164.694 157.788L180.284 146.248Z" fill="black"/>
</svg>
