<svg width="280" height="280" viewBox="0 0 280 280" fill="none" xmlns="http://www.w3.org/2000/svg">
<path d="M131.935 112.198V139.363H148.066V112.198L140 101.247L131.935 112.198Z" fill="#0E8138"/>
<path d="M75.46 120.626V198.443L100.127 172.468H179.884L204.541 198.443V120.626L140 33L75.46 120.626ZM153.236 144.533H126.764V110.502L140 92.5304L153.236 110.502V144.533Z" fill="#0E8138"/>
<path d="M21.4281 246.323L20.2858 244.397C19.1315 242.4 17.6663 239.942 15.8901 237.029C14.1139 234.111 12.8401 232.083 12.0686 230.941L21.0752 219.656H14.9452L5.57381 231.467V219.656H0V246.323H5.57381V238.106L8.31885 235.002C9.24582 236.336 10.2206 237.831 11.2553 239.487C12.2899 241.15 13.2468 242.765 14.1199 244.343C14.2754 244.601 14.395 244.816 14.4907 244.989C14.5804 245.169 14.6582 245.312 14.718 245.432C14.9273 245.839 15.0947 246.138 15.2263 246.323H21.4281ZM24.6695 219.656L24.6336 234.882C24.6216 238.644 25.441 241.539 27.0975 243.566C28.7482 245.587 31.4812 246.604 35.2848 246.604C38.8611 246.604 41.5583 245.623 43.3824 243.668C45.2005 241.712 46.1155 238.859 46.1155 235.11V219.656H40.6314V234.583C40.6314 236.521 40.434 238.046 40.0453 239.146C39.6506 240.253 39.0824 241.03 38.3349 241.479C37.5873 241.927 36.6244 242.155 35.4463 242.155C34.2203 242.155 33.2275 241.945 32.468 241.533C31.7085 241.114 31.1284 240.36 30.7397 239.26C30.3509 238.166 30.1536 236.605 30.1536 234.583L30.1895 219.656H24.6695ZM54.7154 219.656L52.0182 219.638V246.323H54.841C57.4186 246.484 59.5596 246.568 61.2521 246.568C65.2111 246.568 68.022 245.839 69.6785 244.379C71.3411 242.92 72.1664 240.875 72.1664 238.243C72.1664 237.125 71.9392 236.12 71.4787 235.241C71.0122 234.362 70.3723 233.65 69.5589 233.118C68.7396 232.592 67.8067 232.263 66.7541 232.149C67.5854 231.928 68.2971 231.527 68.9011 230.947C69.4991 230.373 69.9596 229.667 70.2766 228.836C70.5936 228.005 70.7491 227.108 70.7491 226.139C70.7491 224.781 70.3962 223.603 69.6965 222.592C68.9968 221.582 67.9203 220.792 66.467 220.236C65.0078 219.674 63.1837 219.393 60.9889 219.393C60.1038 219.393 58.8479 219.447 57.2212 219.548C56.0311 219.62 55.1938 219.656 54.7154 219.656ZM64.3739 229.853C63.6562 230.505 62.496 230.834 60.8872 230.834C60.3729 230.834 59.7629 230.822 59.0632 230.798C58.3635 230.774 57.8551 230.738 57.5382 230.678V223.705C57.7116 223.621 58.1183 223.561 58.7462 223.525C59.3802 223.495 59.9244 223.478 60.3909 223.478C62.0415 223.478 63.2914 223.729 64.1526 224.231C65.0078 224.733 65.4384 225.523 65.4384 226.611C65.4384 228.118 65.0855 229.201 64.3739 229.853ZM65.2709 241.748C64.4396 242.394 63.1479 242.711 61.4076 242.711C60.5822 242.711 59.7809 242.681 59.0213 242.615C58.2558 242.555 57.7595 242.436 57.5382 242.256V234.691C57.7714 234.655 58.3037 234.625 59.135 234.601C59.9603 234.577 60.7138 234.565 61.3896 234.565C63.1658 234.565 64.4696 234.876 65.2889 235.504C66.1142 236.126 66.5268 237.125 66.5268 238.489C66.5268 240.02 66.1082 241.108 65.2709 241.748ZM93.1938 219.656H76.9329V246.323H94.3301V241.927H82.5067V234.775H90.7059V230.552H82.5067V223.932H93.1938V219.656ZM104.742 219.656H99.1324V246.323H104.742V219.656ZM133.353 219.656H128.168V232.921L128.67 239.332L126.661 235.337L116.721 219.656H111.554V246.323H116.739V233.339L116.147 226.982L118.246 231.24L127.761 246.323H133.353V219.656ZM142.533 219.656H136.558L146.474 246.431H151.204L161.018 219.656H155.08L150.361 234.218L148.926 239.296L147.508 234.218L142.533 219.656ZM178.224 240.683L180.006 246.323H186.089L176.155 219.375H170.515L160.666 246.323H166.658L168.428 240.683H178.224ZM176.944 236.67H169.672L172.525 227.52L173.296 224.769L174.05 227.52L176.944 236.67ZM191.764 219.656H189.121V246.323H191.818C192.404 246.323 193.205 246.365 194.216 246.449C195.879 246.55 197.129 246.604 197.966 246.604C200.681 246.604 203.037 246.036 205.041 244.906C207.038 243.769 208.587 242.131 209.67 239.978C210.758 237.831 211.302 235.265 211.302 232.287C211.302 228.118 210.22 224.925 208.049 222.706C205.884 220.487 202.613 219.375 198.229 219.375C196.979 219.375 195.574 219.435 194.007 219.548C192.888 219.62 192.141 219.656 191.764 219.656ZM203.534 239.99C202.278 241.527 200.537 242.304 198.319 242.328C196.728 242.328 195.538 242.22 194.742 242.011V223.824L195.448 223.759C196.333 223.639 197.087 223.579 197.703 223.579C199.491 223.579 200.944 223.878 202.068 224.476C203.187 225.068 204.03 226.049 204.58 227.407C205.136 228.77 205.417 230.594 205.417 232.885C205.417 236.084 204.79 238.453 203.534 239.99ZM232.605 219.656H216.35V246.323H233.747V241.927H221.918V234.775H230.117V230.552H221.918V223.932H232.605V219.656ZM259.224 246.323L258.117 244.397C257.651 243.59 257.077 242.37 256.401 240.731C255.767 239.26 255.223 238.1 254.762 237.245C254.302 236.395 253.764 235.708 253.142 235.181C254.589 234.607 255.689 233.698 256.443 232.448C257.196 231.198 257.573 229.524 257.573 227.437C257.573 224.524 256.682 222.455 254.9 221.223C253.124 219.991 250.809 219.375 247.975 219.375C246.97 219.375 246.037 219.393 245.188 219.429C244.332 219.465 243.585 219.506 242.945 219.548C242.173 219.62 241.492 219.656 240.894 219.656H238.316V246.323H243.89V236.246C245.044 236.246 246.222 236.228 247.412 236.18C247.975 236.18 248.459 236.407 248.866 236.862C249.272 237.316 249.619 237.879 249.894 238.554C250.163 239.224 250.486 240.115 250.845 241.222C251.102 241.993 251.318 242.609 251.485 243.076C251.653 243.536 251.838 243.973 252.035 244.397L252.28 244.924C252.424 245.234 252.55 245.51 252.669 245.737C252.783 245.964 252.902 246.161 253.016 246.323H259.224ZM243.89 232.239V223.842C244.781 223.633 245.917 223.525 247.305 223.525C248.614 223.525 249.625 223.711 250.337 224.082C251.049 224.446 251.533 224.925 251.784 225.517C252.035 226.109 252.161 226.797 252.161 227.592C252.161 228.962 251.784 230.092 251.037 230.995C250.289 231.892 249.129 232.341 247.55 232.341C245.696 232.341 244.476 232.305 243.89 232.239ZM263.619 240.558L262.83 245.025C263.183 245.246 263.781 245.48 264.624 245.725C265.473 245.97 266.448 246.179 267.555 246.347C268.655 246.52 269.749 246.604 270.838 246.604C272.662 246.604 274.265 246.317 275.646 245.737C277.034 245.157 278.104 244.314 278.864 243.195C279.623 242.083 280 240.737 280 239.176C280 237.807 279.701 236.635 279.097 235.654C278.499 234.673 277.698 233.83 276.699 233.118C275.7 232.412 274.36 231.617 272.68 230.732C271.442 230.074 270.515 229.548 269.911 229.141C269.301 228.74 268.84 228.316 268.535 227.873C268.224 227.431 268.069 226.898 268.069 226.276C268.069 225.403 268.38 224.727 269.008 224.255C269.63 223.783 270.652 223.543 272.064 223.543C273.266 223.543 274.336 223.705 275.281 224.022C276.22 224.333 277.088 224.745 277.883 225.248L278.792 220.918C278.206 220.541 277.297 220.194 276.053 219.865C274.809 219.536 273.427 219.375 271.908 219.375C270.144 219.375 268.565 219.62 267.166 220.105C265.772 220.589 264.66 221.366 263.841 222.431C263.015 223.501 262.603 224.877 262.603 226.557C262.603 228.519 263.219 230.152 264.445 231.449C265.671 232.741 267.262 233.878 269.223 234.846C270.7 235.57 271.783 236.156 272.477 236.599C273.17 237.041 273.667 237.484 273.954 237.92C274.247 238.357 274.396 238.895 274.396 239.523C274.396 240.462 274.103 241.144 273.517 241.586C272.937 242.023 271.926 242.238 270.485 242.238C269.169 242.238 267.907 242.077 266.705 241.748C265.497 241.425 264.475 241.024 263.619 240.558Z" fill="#303030"/>
</svg>
