<svg xmlns="http://www.w3.org/2000/svg" width="280" height="280" fill="none"><g clip-path="url(#a)"><path fill="url(#b)" d="m239.214 133.366-46.137 79.879a15.8 15.8 0 0 1-2.145 2.897h-25.024l-23.354-40.455-6.908-11.99 11.838-20.499 9.692-16.809 8.732-15.11h60.55z"/><path fill="#2916FC" d="m247.262 119.412-8.049 13.954-12.756-22.087h-60.55l-8.732 15.11-9.692 16.809-11.837 20.499 6.907 11.99 23.354 40.455h25.025a16.32 16.32 0 0 1-12.032 5.292H70.542a16.36 16.36 0 0 1-14.177-8.189L2.193 119.412a16.41 16.41 0 0 1 0-16.391L56.365 9.188A16.39 16.39 0 0 1 70.542 1H178.9a16.39 16.39 0 0 1 14.176 8.188l54.186 93.833a16.41 16.41 0 0 1 0 16.391"/><path fill="#fff" d="M111.708 55.771H92.491a5.14 5.14 0 0 0-5.153 5.153v100.601a5.14 5.14 0 0 0 5.153 5.138h19.217c.293 0 .585-.028.864-.069a5.15 5.15 0 0 0 4.289-5.069V60.924a5.15 5.15 0 0 0-5.153-5.153m32.462 46.763 1.726-2.548 2.911-4.331 21.474-31.863c2.311-3.412-.139-8.021-4.262-8.021h-18.284a5.12 5.12 0 0 0-4.345 2.395l-26.529 41.82-3.203 5.055a5.2 5.2 0 0 0-.153 5.264l3.356 6.058 9.581 17.296 13.007 23.465 8.035-13.926 8.537-14.775-12.018-20.388a5.13 5.13 0 0 1-.599-3.746 5.3 5.3 0 0 1 .766-1.755"/><path fill="#000D33" d="M279.014 157.333a20.3 20.3 0 0 0-1.81-4.122l-31.417-54.423a21 21 0 0 0-3.37-4.373 21.06 21.06 0 0 0-14.817-6.113h-62.848a21.04 21.04 0 0 0-15.945 7.353 21 21 0 0 0-2.228 3.133l-.683 1.198-2.492 4.303-9.331 16.168-7.631 13.202-9.581 16.613-1.699 2.939c-.056.111-.112.208-.167.32a20.83 20.83 0 0 0-2.423 13.062 20.8 20.8 0 0 0 2.59 7.618l31.417 54.408c3.746 6.476 10.709 10.501 18.173 10.501H227.6c.696 0 1.378-.028 2.047-.098l22.323 35.664c2.632 4.206 8.244 5.473 12.436 2.855l1.351-.849c4.219-2.632 5.501-8.23 2.883-12.422l-22.602-36.096 31.166-53.963a21.1 21.1 0 0 0 1.81-16.878m-29.133 18.229-23.423 40.58h-60.55l-23.34-40.455-6.921-11.99 3.802-6.573 8.035-13.926 8.536-14.776 1.17-2.033 8.718-15.109h60.55l12.784 22.128 17.477 30.289z"/><path fill="#fff" d="M169.555 166.663h-21.78a5.18 5.18 0 0 1-4.512-2.646l-3.816-6.893 8.036-13.926 8.536-14.776 17.965 30.484c2.033 3.426-.446 7.757-4.429 7.757" opacity=".76"/><path fill="url(#c)" d="m239.241 133.422-47.78 82.72h-.529a15.8 15.8 0 0 0 2.144-2.897l46.137-79.879z"/></g><defs><linearGradient id="b" x1="135.646" x2="239.214" y1="163.71" y2="163.71" gradientUnits="userSpaceOnUse"><stop stop-color="#FF7879"/><stop offset=".21" stop-color="#FB767A"/><stop offset=".36" stop-color="#F27280"/><stop offset=".5" stop-color="#E26A8A"/><stop offset=".63" stop-color="#CB6098"/><stop offset=".75" stop-color="#AD52AA"/><stop offset=".86" stop-color="#8941C0"/><stop offset=".98" stop-color="#5F2DD9"/><stop offset="1" stop-color="#5529E0"/></linearGradient><linearGradient id="c" x1="190.932" x2="239.241" y1="174.754" y2="174.754" gradientUnits="userSpaceOnUse"><stop stop-color="#FF7879"/><stop offset=".21" stop-color="#FB767A"/><stop offset=".36" stop-color="#F27280"/><stop offset=".5" stop-color="#E26A8A"/><stop offset=".63" stop-color="#CB6098"/><stop offset=".75" stop-color="#AD52AA"/><stop offset=".86" stop-color="#8941C0"/><stop offset=".98" stop-color="#5F2DD9"/><stop offset="1" stop-color="#5529E0"/></linearGradient><clipPath id="a"><path fill="#fff" d="M0 0h280v280H0z"/></clipPath></defs></svg>