<svg width="280" height="280" viewBox="0 0 280 280" fill="none" xmlns="http://www.w3.org/2000/svg">
<path fill-rule="evenodd" clip-rule="evenodd" d="M250.095 223.544C252.426 225.806 255.546 227.071 258.794 227.071C262.042 227.071 265.163 225.806 267.494 223.544C269.759 221.152 271.021 217.982 271.021 214.688C271.021 211.393 269.759 208.224 267.494 205.831C265.163 203.569 262.042 202.305 258.794 202.305C255.546 202.305 252.426 203.569 250.095 205.831C247.83 208.224 246.568 211.393 246.568 214.688C246.568 217.982 247.83 221.152 250.095 223.544ZM258.794 235.3C256.075 235.351 253.374 234.85 250.855 233.826C248.336 232.802 246.051 231.277 244.138 229.344C240.272 225.446 238.103 220.178 238.103 214.688C238.103 209.198 240.272 203.93 244.138 200.032C248.069 196.212 253.333 194.075 258.814 194.075C264.295 194.075 269.559 196.212 273.49 200.032C276.407 202.917 278.397 206.608 279.205 210.632C280.012 214.655 279.6 218.828 278.022 222.616C276.444 226.404 273.771 229.635 270.345 231.894C266.92 234.154 262.898 235.34 258.794 235.3ZM216.158 194.075C220.652 194.075 224.283 195.512 227.053 198.386C229.822 201.26 231.206 205.204 231.207 210.221V234.282H222.742V211.083C222.742 208.157 221.958 205.91 220.39 204.342C218.823 202.775 216.681 201.991 213.964 201.991C210.985 201.991 208.582 202.918 206.753 204.773C204.924 206.628 204.01 209.463 204.01 213.277V234.282H195.546V195.094H204.01V200.11C206.571 196.087 210.62 194.075 216.158 194.075ZM177.206 201.678C179.348 196.818 183.371 194.388 189.276 194.389V203.559C186.268 203.286 183.262 204.106 180.811 205.87C178.407 207.621 177.206 210.508 177.206 214.531V234.282H168.742V195.094H177.206L177.206 201.678ZM129.711 211.396H152.753C152.178 208.209 150.859 205.805 148.795 204.186C146.73 202.565 144.169 201.707 141.545 201.756C138.708 201.656 135.929 202.573 133.708 204.342C131.575 206.14 130.157 208.642 129.711 211.396ZM129.789 218.293C130.278 221.053 131.824 223.514 134.1 225.151C136.521 226.797 139.402 227.634 142.329 227.542C146.822 227.542 150.193 225.922 152.439 222.682L159.415 226.758C155.548 232.453 149.827 235.301 142.251 235.3C135.876 235.3 130.729 233.354 126.811 229.462C122.892 225.569 120.933 220.644 120.933 214.688C120.933 208.836 122.866 203.937 126.732 199.993C130.599 196.048 135.563 194.075 141.624 194.075C147.371 194.075 152.087 196.087 155.77 200.11C159.454 204.133 161.296 209.019 161.296 214.766C161.271 215.947 161.166 217.126 160.982 218.293L129.789 218.293ZM110.117 195.094H119.365L104.082 234.282H94.285L79.002 195.094H88.2506L99.2229 224.968L110.117 195.094ZM69.2051 195.094H78.2181L63.17 235.536C59.4081 245.672 53.0335 250.479 44.0464 249.956V242.041C46.7113 242.198 48.8536 241.636 50.4733 240.356C52.093 239.076 53.4253 237.077 54.4702 234.36L54.8623 233.576L38.2469 195.094H47.4952L59.186 223.544L69.2051 195.094ZM41.382 234.282H30.6445L9.01301 208.143V234.282H0V179.419H9.01301V204.042L29.8606 179.419H40.598L18.418 206.145L41.382 234.282Z" fill="#3784C5"/>
<path fill-rule="evenodd" clip-rule="evenodd" d="M90.334 71.5261L83.3623 102.07H90.536L96.3848 76.4466C95.2787 75.3241 94.1448 74.2471 92.9736 73.2459C92.654 72.9734 92.3912 72.6407 92.2002 72.2667C91.5967 72.0351 90.9697 71.7868 90.334 71.5261ZM134.083 43.918L98.1949 61.2007C98.6525 61.8414 99.0904 62.4765 99.5026 63.0866C99.9101 63.1887 100.293 63.3701 100.631 63.6203C101.785 64.4735 102.996 65.2802 104.241 66.0534L134.13 51.6604C134.298 50.2173 134.418 48.7813 134.469 47.3605C134.483 46.9408 134.58 46.528 134.753 46.1455C134.529 45.4339 134.302 44.6853 134.083 43.918ZM182.592 60.9812L147.155 43.9158C146.936 44.6838 146.709 45.4333 146.484 46.1455C146.658 46.5279 146.754 46.9407 146.769 47.3604C146.819 48.7807 146.94 50.2162 147.107 51.6588L176.592 65.8568C177.841 65.067 179.055 64.2434 180.211 63.3732C180.546 63.1203 180.928 62.9356 181.335 62.8295C181.731 62.2312 182.152 61.6091 182.592 60.9812ZM197.879 102.07L190.809 71.0915C190.096 71.3944 189.392 71.6802 188.717 71.9461C188.529 72.3214 188.269 72.6562 187.952 72.9317C186.854 73.8875 185.789 74.9106 184.75 75.9759L190.706 102.07H197.879Z" fill="#E87E5B"/>
<path fill-rule="evenodd" clip-rule="evenodd" d="M157.96 83.2131L158.811 84.2641C159.206 80.9041 161.993 77.6802 167.284 74.7899C172.798 71.7774 177.948 69.1045 182.146 65.944L182.702 66.6306C185.983 61.506 188.532 58.2802 190.348 56.9532C192.788 55.4683 195.043 55.9005 196.796 57.8566C198.345 59.9782 198.299 62.2736 196.339 64.3518C194.663 65.8519 190.978 67.6738 185.283 69.8175L185.839 70.5042C181.876 73.9546 178.19 78.4355 174.096 83.2032C170.17 87.777 166.437 89.8326 163.068 89.521L163.919 90.5721L160.608 93.2529L157.683 86.1891L155.435 85.258L157.96 83.2131ZM117.159 90.6751L118.001 89.6172C114.636 89.9585 110.884 87.9357 106.918 83.3961C102.784 78.6641 99.0592 74.2154 95.0645 70.8004L95.615 70.1085C89.9017 68.0144 86.2006 66.2248 84.5116 64.7395C82.5342 62.6787 82.4682 60.3835 83.9985 58.2486C85.7345 56.2772 87.9851 55.8253 90.4387 57.2886C92.2656 58.6003 94.8418 61.8039 98.1674 66.8993L98.718 66.2074C102.944 69.3309 108.117 71.9593 113.657 74.9237C118.973 77.7669 121.788 80.9671 122.212 84.3233L123.054 83.2648L125.599 85.2893L123.426 86.189L120.476 93.3137L117.159 90.6751ZM135.884 77.1385H137.237C134.874 74.7169 134.122 70.5216 135.205 64.5919C136.335 58.4103 137.498 52.7262 137.684 47.4745H138.569C136.651 41.6993 135.747 37.6888 135.858 35.4428C136.24 32.6123 137.995 31.1312 140.618 31C143.242 31.1312 144.997 32.6123 145.379 35.4428C145.49 37.6888 144.586 41.6993 142.669 47.4745H143.553C143.739 52.7262 144.903 58.4103 146.032 64.5919C147.115 70.5216 146.363 74.7169 144.001 77.1385H145.353V81.0829L140.554 79.0956L135.884 81.0296L135.884 77.1385Z" fill="#3784C5"/>
<path fill-rule="evenodd" clip-rule="evenodd" d="M140.554 81.9824L148.097 85.1072L155.641 88.2303L158.764 95.775L161.372 102.07H147.709L147.102 100.605L145.979 97.8925L143.266 96.7697L140.554 95.6463L137.842 96.7697L135.13 97.8925L134.007 100.605L133.4 102.07H119.736L122.345 95.775L125.468 88.2303L133.012 85.1072L140.554 81.9824Z" fill="#E87E5B"/>
<path fill-rule="evenodd" clip-rule="evenodd" d="M84.9907 128.825C84.9912 129.177 84.9222 129.526 84.7877 129.852C84.6532 130.178 84.4558 130.474 84.2067 130.723C83.9577 130.973 83.6619 131.17 83.3363 131.305C83.0108 131.44 82.6618 131.51 82.3093 131.51C81.9569 131.51 81.6079 131.44 81.2823 131.305C80.9567 131.17 80.661 130.973 80.4119 130.723C80.1629 130.474 79.9654 130.178 79.8309 129.852C79.6964 129.526 79.6274 129.177 79.6279 128.825V109.864C79.6281 109.153 79.9106 108.471 80.4135 107.969C80.9163 107.466 81.5983 107.183 82.3094 107.183H197.878C198.59 107.183 199.272 107.466 199.774 107.968C200.277 108.471 200.56 109.153 200.56 109.864V128.825C200.56 129.177 200.491 129.526 200.357 129.852C200.222 130.178 200.025 130.474 199.776 130.723C199.527 130.973 199.231 131.17 198.906 131.305C198.58 131.44 198.231 131.51 197.879 131.51C197.526 131.51 197.177 131.44 196.852 131.305C196.526 131.17 196.23 130.973 195.981 130.723C195.732 130.474 195.535 130.178 195.4 129.852C195.266 129.526 195.197 129.177 195.197 128.825V112.546H142.775V128.825C142.775 129.177 142.706 129.526 142.572 129.852C142.437 130.178 142.24 130.474 141.991 130.723C141.742 130.973 141.446 131.17 141.121 131.305C140.795 131.44 140.446 131.51 140.094 131.51C139.741 131.51 139.392 131.44 139.067 131.305C138.741 131.17 138.445 130.973 138.196 130.723C137.947 130.474 137.75 130.178 137.615 129.852C137.481 129.526 137.412 129.177 137.412 128.825V112.546H84.9907V128.825Z" fill="#3784C5"/>
<path fill-rule="evenodd" clip-rule="evenodd" d="M137.238 156.974C137.27 157.02 137.314 157.057 137.364 157.082C137.414 157.108 137.469 157.121 137.525 157.121H140.093L142.66 157.121C142.714 157.121 142.767 157.109 142.815 157.086C142.863 157.062 142.905 157.028 142.938 156.986L144.539 154.98L146.14 152.972C146.173 152.93 146.196 152.882 146.208 152.83C146.22 152.778 146.22 152.725 146.208 152.673L145.067 147.67C145.056 147.617 145.033 147.567 144.999 147.525C144.966 147.482 144.923 147.448 144.874 147.425L140.247 145.197C140.199 145.174 140.146 145.162 140.093 145.162C140.039 145.162 139.987 145.174 139.939 145.197L135.312 147.425C135.264 147.448 135.222 147.482 135.189 147.524C135.155 147.566 135.132 147.614 135.12 147.666L133.98 152.66C133.966 152.714 133.965 152.77 133.976 152.824C133.988 152.878 134.011 152.929 134.046 152.972L137.238 156.974ZM133.609 164.388C133.684 164.492 133.782 164.576 133.896 164.633C134.009 164.691 134.135 164.722 134.263 164.722H140.094L145.924 164.72C146.046 164.721 146.165 164.693 146.275 164.641C146.384 164.588 146.48 164.511 146.555 164.416L150.191 159.858L153.826 155.298C153.901 155.203 153.953 155.093 153.98 154.976C154.007 154.859 154.007 154.737 153.982 154.619L151.389 143.258C151.363 143.138 151.311 143.025 151.235 142.928C151.159 142.832 151.061 142.754 150.95 142.701L140.444 137.641C140.334 137.588 140.215 137.561 140.093 137.561C139.972 137.561 139.852 137.588 139.743 137.641L129.236 142.701C129.127 142.754 129.031 142.831 128.956 142.926C128.88 143.021 128.827 143.131 128.801 143.25L126.212 154.59C126.18 154.711 126.176 154.839 126.202 154.962C126.228 155.085 126.282 155.2 126.36 155.298L133.609 164.388ZM79.1027 156.974C79.1355 157.02 79.1787 157.057 79.2288 157.082C79.2788 157.108 79.3342 157.121 79.3904 157.121H81.958L84.5256 157.121C84.5791 157.121 84.6318 157.109 84.6799 157.086C84.728 157.062 84.7702 157.028 84.8033 156.986L86.4046 154.98L88.0046 152.972C88.0376 152.93 88.0608 152.882 88.0727 152.83C88.0846 152.778 88.0848 152.725 88.0733 152.673L86.9313 147.67C86.9203 147.617 86.8972 147.568 86.8638 147.525C86.8304 147.482 86.7876 147.448 86.7387 147.425L82.1119 145.197C82.0638 145.174 82.0111 145.162 81.9577 145.162C81.9042 145.162 81.8515 145.174 81.8034 145.197L77.1772 147.425C77.1291 147.448 77.0869 147.482 77.0536 147.524C77.0204 147.566 76.997 147.614 76.9852 147.666L75.8454 152.66C75.8311 152.714 75.8296 152.77 75.841 152.824C75.8524 152.878 75.8764 152.929 75.911 152.972L79.1027 156.974ZM75.474 164.388C75.5489 164.492 75.6472 164.576 75.7608 164.633C75.8744 164.691 76.0001 164.722 76.1276 164.722H81.958L87.7893 164.72C87.9106 164.721 88.0304 164.693 88.1397 164.64C88.249 164.588 88.345 164.511 88.4204 164.416L92.0558 159.858L95.6905 155.298C95.7653 155.204 95.8181 155.094 95.845 154.976C95.872 154.859 95.8723 154.737 95.8461 154.619L93.2535 143.258C93.2284 143.138 93.1758 143.025 93.0999 142.928C93.0239 142.832 92.9266 142.754 92.8155 142.701L82.3088 137.641C82.1994 137.588 82.0797 137.561 81.9583 137.561C81.837 137.561 81.7172 137.588 81.6079 137.641L71.1009 142.701C70.9917 142.754 70.8959 142.831 70.8204 142.926C70.745 143.021 70.6919 143.132 70.6651 143.25L68.077 154.59C68.0445 154.711 68.0411 154.839 68.0669 154.962C68.0927 155.085 68.1471 155.2 68.2256 155.298L75.474 164.388ZM194.672 156.974C194.705 157.02 194.748 157.057 194.798 157.082C194.848 157.108 194.903 157.121 194.959 157.121H197.527L200.095 157.121C200.148 157.121 200.201 157.109 200.249 157.086C200.297 157.062 200.339 157.028 200.372 156.986L201.974 154.98L203.574 152.972C203.607 152.93 203.63 152.882 203.642 152.83C203.654 152.778 203.654 152.725 203.642 152.673L202.501 147.67C202.49 147.617 202.467 147.567 202.433 147.525C202.4 147.482 202.357 147.448 202.308 147.425L197.681 145.197C197.633 145.174 197.58 145.162 197.527 145.162C197.473 145.162 197.421 145.174 197.373 145.197L192.746 147.425C192.698 147.448 192.656 147.482 192.623 147.524C192.589 147.566 192.566 147.614 192.554 147.666L191.414 152.66C191.4 152.714 191.399 152.77 191.41 152.824C191.421 152.878 191.445 152.929 191.48 152.972L194.672 156.974ZM191.043 164.388C191.118 164.492 191.216 164.576 191.33 164.633C191.443 164.691 191.569 164.722 191.697 164.722H197.527L203.358 164.72C203.48 164.721 203.599 164.693 203.709 164.64C203.818 164.588 203.914 164.511 203.989 164.416L207.625 159.858L211.259 155.298C211.334 155.204 211.387 155.094 211.414 154.976C211.441 154.859 211.441 154.737 211.415 154.619L208.822 143.258C208.797 143.138 208.745 143.025 208.669 142.928C208.593 142.832 208.496 142.754 208.385 142.701L197.878 137.641C197.768 137.588 197.648 137.561 197.527 137.561C197.406 137.561 197.286 137.588 197.177 137.641L186.67 142.701C186.561 142.754 186.465 142.831 186.389 142.926C186.314 143.021 186.261 143.131 186.234 143.25L183.646 154.59C183.613 154.711 183.61 154.839 183.636 154.962C183.662 155.085 183.716 155.2 183.795 155.298L191.043 164.388Z" fill="#E87E5B"/>
</svg>
