<svg xmlns="http://www.w3.org/2000/svg" width="280" height="280" fill="none"><path fill="#00618A" d="M257.852 215.6c-15.274-.414-26.941 1.006-36.915 5.213-2.834 1.195-7.354 1.226-7.816 4.779 1.557 1.633 1.799 4.071 3.037 6.079 2.382 3.854 6.403 9.018 9.99 11.727 3.92 2.958 7.96 6.124 12.162 8.685 7.474 4.559 15.819 7.161 23.017 11.727 4.241 2.692 8.455 6.082 12.594 9.119 2.045 1.502 3.421 3.837 6.079 4.777v-.433c-1.397-1.778-1.757-4.224-3.04-6.081l-5.645-5.646c-5.521-7.327-12.529-13.763-19.978-19.108-5.94-4.265-19.236-10.025-21.714-16.938q-.216-.218-.436-.435c4.213-.474 9.144-1.999 13.032-3.04 6.53-1.751 12.365-1.298 19.108-3.04q4.559-1.304 9.121-2.606v-1.737c-3.409-3.498-5.84-8.127-9.556-11.292-9.725-8.281-20.339-16.554-31.269-23.453-6.062-3.827-13.554-6.313-19.977-9.555-2.162-1.091-5.958-1.658-7.386-3.475-3.374-4.303-5.212-9.756-7.814-14.767-5.453-10.497-10.807-21.963-15.636-33.007-3.295-7.531-5.446-14.959-9.554-21.716-19.72-32.422-40.947-51.991-73.83-71.226-6.996-4.09-15.42-5.706-24.322-7.817l-14.332-.869c-2.915-1.219-5.95-4.786-8.685-6.515C37.194 8.07 9.253-6.9 1.185 12.78-3.91 25.2 8.798 37.321 13.343 43.614c3.19 4.416 7.275 9.367 9.554 14.332 1.5 3.264 1.76 6.536 3.042 9.99 3.158 8.506 5.903 17.761 9.987 25.623 2.065 3.978 4.34 8.169 6.95 11.726 1.6 2.183 4.342 3.144 4.776 6.515-2.682 3.753-2.835 9.578-4.342 14.332-6.788 21.402-4.228 48.004 5.646 63.844 3.03 4.862 10.165 15.291 19.977 11.292 8.583-3.496 6.665-14.33 9.12-23.887.556-2.168.215-3.76 1.303-5.212v.435l7.819 15.633c5.785 9.318 16.053 19.056 24.754 25.627 4.512 3.407 8.064 9.298 13.898 11.291v-.435h-.436c-1.13-1.763-2.898-2.492-4.341-3.908-3.4-3.332-7.179-7.475-9.99-11.292-7.913-10.744-14.908-22.504-21.28-34.745-3.043-5.844-5.688-12.293-8.253-18.241-.989-2.294-.977-5.761-3.038-6.949-2.81 4.359-6.948 7.882-9.12 13.029-3.476 8.227-3.925 18.26-5.211 28.664-.763.273-.424.085-.871.434-6.048-1.459-8.175-7.686-10.421-13.028-5.687-13.509-6.743-35.263-1.74-50.814 1.295-4.022 7.146-16.695 4.778-20.412-1.13-3.709-4.86-5.853-6.948-8.687-2.583-3.504-5.162-8.116-6.95-12.161-4.654-10.534-6.826-22.359-11.725-33.006-2.341-5.09-6.302-10.24-9.554-14.766-3.601-5.013-7.633-8.705-10.423-14.768-.993-2.154-2.342-5.603-.87-7.817.469-1.495 1.129-2.118 2.607-2.606 2.52-1.942 9.535.646 12.159 1.737 6.965 2.893 12.777 5.647 18.677 9.555 2.832 1.878 5.696 5.51 9.118 6.515h3.909c6.114 1.406 12.963.436 18.675 2.17 10.096 3.07 19.143 7.842 27.36 13.03 25.033 15.806 45.5 38.306 59.5 65.146 2.252 4.322 3.228 8.446 5.211 13.03 4.003 9.244 9.045 18.755 13.027 27.795 3.974 9.018 7.848 18.12 13.464 25.625 2.955 3.945 14.361 6.061 19.544 8.251 3.634 1.536 9.587 3.137 13.029 5.211 6.575 3.966 12.944 8.687 19.111 13.031 3.082 2.171 12.555 6.932 13.027 10.856"/><path fill="#00618A" fill-rule="evenodd" d="M63.722 50.13c-3.185-.059-5.437.348-7.819.867v.435h.436c1.519 3.121 4.2 5.13 6.079 7.819q2.17 4.56 4.344 9.118l.433-.433c2.69-1.895 3.922-4.927 3.908-9.555-1.077-1.133-1.236-2.556-2.17-3.91-1.243-1.802-3.646-2.826-5.211-4.341" clip-rule="evenodd"/></svg>