<svg xmlns="http://www.w3.org/2000/svg" width="280" height="280" fill="none"><g clip-path="url(#a)"><path fill="#416A5D" d="M16.858 192.473s28.922-42.526 81.683-29.5 52.346-38.371 105.501-46.66c53.156-8.269 72.617 18.531 72.617 18.531l3.34 34.548-14.648 37.561-27.49 19.799-12.324 10.034-7.199 22.125-22.345 1.537-11.308-1.807-2.054-17.742-11.307-7.084-22.905 3.989-8.694 10.803-5.643 11.841h-27.74l-4.626-20.587-17.262-7.521-30.022-17.181-12.593-10.034-13.092 1.537-10.54-1.807-1.349-12.423z" opacity=".4"/><path fill="#023927" d="M97.69 263.44h-9.398c-9.752 0-17.926-7.313-19.005-17.035l-1.245-11.281c-.353-3.178 1.93-6.045 5.104-6.398 3.174-.374 6.037 1.932 6.39 5.11l1.245 11.281a7.553 7.553 0 0 0 7.51 6.731h9.4c3.194 0 5.788 2.597 5.788 5.776s-2.594 5.795-5.789 5.795m80.17.021h-8.195c-8.403 0-15.727-5.381-18.237-13.4l-2.718-8.663a5.79 5.79 0 0 1 3.776-7.25 5.765 5.765 0 0 1 7.241 3.781l2.718 8.663a7.53 7.53 0 0 0 7.22 5.298h8.195c3.195 0 5.789 2.596 5.789 5.775 0 3.178-2.594 5.796-5.789 5.796"/><path fill="#63E892" d="M161.468 31.78c0 1.33.747 2.306 2.199 2.93v-5.34c-1.473.27-2.199 1.08-2.199 2.41"/><path fill="#023927" d="M164.708 13c-13.714 0-24.835 11.135-24.835 24.868s11.121 24.867 24.835 24.867 24.835-11.135 24.835-24.867S178.422 13 164.708 13"/><path fill="#7F9C93" d="M34.142 206.725s-14.689-84.138 92.14-91.16 69.235-59.935 112.721-33.364 29.171 46.826 29.171 46.826l3.714 50.94-27.054 40.656-24.317 15.935-2.157 22.374-20.893.457-15.685-3.449-6.162-19.382-18.341-1.787-15.581 6.233-9.772 18.344-14.461 6.003-22.263-4.715s1.287-16.869 1.287-18.448-16.66-7.313-16.66-7.313l-2.822-8.019-34.648-16.412-8.217-3.781z" opacity=".3"/><path fill="#023927" d="M209.106 267.554h-23.051a12.135 12.135 0 0 1-11.951-10.013l-2.095-11.676a3.655 3.655 0 0 0-3.61-3.012h-22.387c-1.639 0-3.091 1.122-3.527 2.701l-3.527 13.005a12.15 12.15 0 0 1-11.722 8.974h-21.329c-5.684 0-10.684-4.051-11.867-9.639L90.762 242.5c-10.81-2.327-40.81-10.325-54.027-29.563-1.1-1.62-3.133-2.327-5.02-1.766L25.573 213a12.5 12.5 0 0 1-10.166-1.372 12.57 12.57 0 0 1-5.768-8.497l-9.44-53.142c-.685-3.864.415-7.728 3.05-10.636 2.635-2.909 6.37-4.425 10.29-4.093l2.22.166c2.158.146 4.13-1.184 4.71-3.199 3.921-13.67 14.606-38.517 42.616-55.884-3.86-2.514-9.046-4.134-15.499-4.82l-4.543-.478-1.245-9.182 4.377-1.662 53.3-19.799a14.1 14.1 0 0 1 12.076 1.018c3.651 2.12 6.141 5.734 6.846 9.91 1.826 10.948 5.353 18.49 9.461 20.255 15.997 4.633 60.313 12.631 77.596-4.55 4.959-4.923 12.926-5.67 18.943-1.786 16.93 11.01 56.205 42.547 55.354 97.829-.062 2.243-2.199 52.331-52.429 74.186l-6.577 21.689c-1.556 5.152-6.224 8.622-11.619 8.622m-63.072-36.273h22.386a15.206 15.206 0 0 1 14.98 12.548l2.096 11.676c.041.27.29.477.581.477h23.05c.27 0 .477-.166.56-.415l8.175-26.945 2.572-1.039c45.583-18.344 47.699-62.906 47.761-64.796.747-49.382-34.773-77.885-50.084-87.836-1.473-.956-3.361-.831-4.482.29-25.789 25.616-86.683 8.123-89.256 7.355l-.456-.146c-8.548-3.282-14.233-13.13-16.909-29.25a2.52 2.52 0 0 0-1.245-1.787 2.62 2.62 0 0 0-2.241-.187L66.57 64.979c4.523 2.368 8.175 5.484 10.913 9.37 7.864 11.114 4.917 24.077 4.793 24.617-.747 3.117-3.86 5.028-6.95 4.301a5.773 5.773 0 0 1-4.295-6.939c.041-.166 1.12-5.36-.726-10.824-25.54 15.374-35.188 37.707-38.695 49.922-2.095 7.271-9.108 12.154-16.722 11.53l-2.22-.166a1.1 1.1 0 0 0-.83.332 1 1 0 0 0-.249.852l9.461 53.184a.993.993 0 0 0 1.266.768l6.14-1.828a16.03 16.03 0 0 1 17.823 6.295c13.175 19.196 49.919 25.408 50.292 25.47l3.901.644 4.875 22.998c.062.27.291.457.56.457h21.329c.27 0 .498-.187.56-.436l3.527-13.006c1.785-6.627 7.822-11.26 14.689-11.26"/><path fill="#023927" d="M73.789 131.478c0 6.191-5 11.198-11.183 11.198s-11.183-5.007-11.183-11.198 5-11.197 11.183-11.197 11.183 5.006 11.183 11.197"/></g><defs><clipPath id="a"><path fill="#fff" d="M0 0h280v280H0z"/></clipPath></defs></svg>