<?xml version="1.0" encoding="UTF-8"?><svg id="Layer_1" xmlns="http://www.w3.org/2000/svg" xmlns:xlink="http://www.w3.org/1999/xlink" viewBox="0 0 87 117"><defs><style>.cls-1{fill:url(#linear-gradient);}.cls-2{fill:#7ce2df;}.cls-3{fill:#23a899;}.cls-4{fill:url(#linear-gradient-3);}.cls-5{fill:url(#linear-gradient-4);}.cls-6{fill:url(#linear-gradient-2);}</style><linearGradient id="linear-gradient" x1="43.72" y1="24.21" x2="83.15" y2="24.21" gradientTransform="matrix(1, 0, 0, 1, 0, 0)" gradientUnits="userSpaceOnUse"><stop offset="0" stop-color="#315e7a" stop-opacity="0"/><stop offset=".29" stop-color="#2f536c" stop-opacity=".2"/><stop offset=".79" stop-color="#2b3648" stop-opacity=".74"/><stop offset="1" stop-color="#292837"/></linearGradient><linearGradient id="linear-gradient-2" x1="19.94" y1="58.06" x2="76.97" y2="59.18" gradientTransform="matrix(1, 0, 0, 1, 0, 0)" gradientUnits="userSpaceOnUse"><stop offset="0" stop-color="#23a899"/><stop offset=".1" stop-color="#24a297"/><stop offset=".22" stop-color="#279291"/><stop offset=".36" stop-color="#2d7888"/><stop offset=".45" stop-color="#326582"/><stop offset=".51" stop-color="#2f5771"/><stop offset=".62" stop-color="#2c4257"/><stop offset=".74" stop-color="#2a3345"/><stop offset=".86" stop-color="#292a3a"/><stop offset="1" stop-color="#292837"/></linearGradient><linearGradient id="linear-gradient-3" x1="3.82" y1="24.13" x2="43.72" y2="24.13" gradientTransform="matrix(1, 0, 0, 1, 0, 0)" gradientUnits="userSpaceOnUse"><stop offset="0" stop-color="#326582"/><stop offset=".42" stop-color="#2c7f8b" stop-opacity=".6"/><stop offset="1" stop-color="#23a899" stop-opacity="0"/></linearGradient><linearGradient id="linear-gradient-4" x1="-6.02" y1="104.56" x2="18.21" y2="54.28" gradientTransform="matrix(1, 0, 0, 1, 0, 0)" gradientUnits="userSpaceOnUse"><stop offset=".5" stop-color="#23a899" stop-opacity="0"/><stop offset=".57" stop-color="#23a497" stop-opacity=".05"/><stop offset=".67" stop-color="#269a94" stop-opacity=".2"/><stop offset=".79" stop-color="#298a8e" stop-opacity=".44"/><stop offset=".92" stop-color="#2e7387" stop-opacity=".78"/><stop offset="1" stop-color="#326582"/></linearGradient></defs><polygon class="cls-2" points="23.45 58.4 23.45 80.68 3.67 68.58 3.82 46.87 23.45 58.4"/><polygon class="cls-2" points="83.33 92.91 43.25 115.67 43.25 92.8 83.33 70 83.33 92.91"/><polygon class="cls-2" points="43.72 1.33 3.84 24.24 23.66 35.55 43.72 24.05 43.72 1.33"/><polygon class="cls-3" points="43.25 92.8 29.98 84.64 29.98 108.01 43.25 115.67 43.25 92.8"/><polygon class="cls-3" points="43.72 1.33 43.72 24.04 63.61 35.67 83.15 24.18 43.72 1.33"/><polygon class="cls-1" points="43.72 1.33 43.72 24.04 83.15 47.09 83.15 24.18 43.72 1.33"/><polygon class="cls-6" points="44.09 70.1 63.59 58.55 43.67 46.96 23.45 58.4 44.09 70.1"/><polygon class="cls-2" points="83.15 47.09 83.15 24.18 63.67 35.63 43.67 46.96 63.59 58.55 83.15 47.09"/><polygon class="cls-3" points="83.33 70 63.59 58.55 44.09 70.1 83.33 92.91 83.33 70"/><polygon class="cls-4" points="43.72 1.38 3.84 24.24 3.82 46.87 43.72 24.05 43.72 1.38"/><polygon class="cls-5" points="23.45 58.4 23.45 80.68 3.67 68.58 3.82 46.87 23.45 58.4"/><polyline class="cls-3" points="37.75 50.31 43.67 46.96 3.84 24.24 3.82 46.87 23.45 58.4"/></svg>