<svg width="280" height="280" viewBox="0 0 280 280" fill="none" xmlns="http://www.w3.org/2000/svg">
<path d="M140.404 276.809C215.738 276.809 276.809 215.738 276.809 140.404C276.809 65.0703 215.738 4 140.404 4C65.0703 4 4 65.0703 4 140.404C4 215.738 65.0703 276.809 140.404 276.809Z" fill="#23183A"/>
<path d="M99.2686 72.7427L104.14 79.2381C112.259 89.5226 120.379 100.348 128.498 110.633C129.039 111.174 129.581 112.798 129.039 113.339L121.461 125.789C118.214 131.202 114.425 137.156 111.177 143.11V143.651C112.801 142.569 114.425 142.027 116.048 140.945L140.948 125.789C142.03 125.248 143.654 125.248 144.195 126.33C151.773 132.284 159.351 138.238 166.929 144.193C171.26 147.44 175.59 151.229 180.462 154.477C180.462 155.018 181.003 155.018 181.544 155.018C171.801 142.569 162.058 130.119 152.315 117.67C151.773 117.128 151.232 115.504 151.773 114.963C155.021 110.091 157.728 105.22 160.975 99.807C163.682 94.9354 166.929 90.0638 169.636 84.651C168.553 85.1923 167.471 85.7336 166.929 86.2748L148.526 97.6419L140.406 102.513C139.324 103.596 138.241 103.055 137.159 101.972L111.718 82.4859C107.388 78.6968 103.599 75.4491 99.2686 72.7427Z" fill="#9F234F"/>
<path d="M158.808 94.9365C157.726 96.0191 157.185 96.0191 156.102 97.1017C151.23 100.349 146.359 104.138 140.946 107.386C140.405 107.386 139.863 107.386 139.322 107.386C137.157 105.762 134.451 103.597 132.285 102.515C129.038 100.349 125.249 97.6429 122.001 95.4778C122.542 96.5604 123.084 97.6429 123.625 98.1842C126.873 103.056 130.662 107.927 133.909 113.34C134.451 113.882 134.451 114.423 133.909 114.964L126.331 125.79C124.707 127.955 123.084 130.12 122.001 132.285C122.001 132.285 122.001 132.285 122.001 132.827C127.955 128.496 133.909 124.707 139.863 120.377C140.405 120.377 140.946 120.377 141.487 120.377C144.735 122.542 147.441 124.707 150.148 126.331C152.854 127.955 156.102 130.661 158.808 132.285C158.267 131.744 157.726 131.203 157.726 130.661L150.148 119.836C149.065 118.212 147.983 116.588 146.9 114.964C146.359 114.423 146.359 113.882 146.9 113.34C149.607 109.551 152.313 105.221 155.561 101.432C156.643 99.2668 158.267 97.1017 158.808 94.9365Z" fill="#F08117"/>
<path d="M140.404 80.8628C140.404 82.4867 139.863 83.5692 139.322 85.1931C138.239 92.7711 136.615 100.349 135.533 107.386C135.533 107.927 134.991 108.468 134.45 108.468C130.661 109.01 126.872 109.551 123.624 110.092C118.753 111.716 113.34 112.799 107.927 113.881H107.386L111.716 114.423L133.909 118.212C134.45 118.212 135.533 119.294 135.533 119.835C136.615 125.248 137.157 130.661 138.239 136.074L139.863 145.817C139.863 146.359 139.863 146.359 140.404 146.359C142.028 137.157 143.652 128.496 144.735 119.294C144.735 118.753 145.276 118.212 145.817 118.212C150.147 117.67 154.478 116.588 159.349 116.046L172.881 113.881C172.34 113.881 171.258 113.881 170.175 113.34C164.762 112.257 159.349 111.716 153.936 110.634C151.771 110.092 149.065 109.551 146.358 109.551C145.276 109.551 144.735 109.01 144.735 107.927C143.652 101.973 142.569 96.0188 141.487 90.0647C141.487 86.2756 141.487 83.5692 140.404 80.8628Z" fill="#F08117"/>
<path d="M140.405 94.9365C140.405 96.0191 140.405 96.5604 139.864 97.1017C138.782 101.432 138.782 105.762 137.699 110.093L137.158 111.175C134.993 111.175 132.827 111.716 131.204 112.258L122.543 113.882C123.626 113.882 124.167 113.882 124.708 114.423C129.038 114.964 133.369 115.505 137.699 116.588C138.24 116.588 138.24 117.129 138.24 117.671C138.782 120.918 139.323 123.625 139.864 126.872C139.864 128.496 140.405 130.661 140.947 132.285C141.488 127.414 142.571 122.001 143.653 117.129C143.653 116.588 143.653 116.588 144.194 116.047C146.36 115.505 149.066 114.964 151.772 114.964C154.479 114.964 156.644 114.423 159.35 113.882C158.809 113.882 158.268 113.882 157.727 113.882L147.983 111.716L143.653 111.175C143.112 111.175 142.571 111.175 142.571 110.093C142.029 106.845 141.488 103.056 140.947 99.8081C140.405 98.1843 140.405 96.5604 140.405 94.9365Z" fill="#8ED0D9"/>
<path d="M206.404 179.346L190.203 165.845C189.662 164.763 188.038 164.763 186.414 165.845L170.855 178.617L192.62 196.475C197.992 191.471 202.644 185.703 206.404 179.346Z" fill="#A3A3A3"/>
<path fill-rule="evenodd" clip-rule="evenodd" d="M25.4082 140.402C25.4082 76.8912 76.8937 25.4058 140.404 25.4058C203.915 25.4058 255.4 76.8912 255.4 140.402C255.4 203.912 203.915 255.398 140.404 255.398C76.8937 255.398 25.4082 203.912 25.4082 140.402ZM140.404 63.7822C98.0884 63.7822 63.7847 98.086 63.7847 140.402C63.7847 162.791 73.3877 182.937 88.6996 196.946L137.159 157.185C139.324 155.561 142.03 155.561 144.737 157.185L192.62 196.474C207.634 182.486 217.024 162.54 217.024 140.402C217.024 98.086 182.72 63.7822 140.404 63.7822Z" fill="#D1D1D1"/>
<path d="M144.986 176.55C141.066 173.937 135.91 173.937 131.99 176.55L131.724 176.728L97.001 205.655C99.7068 207.134 102.45 208.438 105.215 209.579C131.724 227.616 141.528 222.126 174.561 208.737C176.537 207.771 178.35 206.738 179.976 205.655L145.252 176.728L144.986 176.55Z" fill="#23183A"/>
<path fill-rule="evenodd" clip-rule="evenodd" d="M138.485 24.4785C74.9747 24.4785 23.4893 75.964 23.4893 139.475C23.4893 202.985 74.9747 254.47 138.485 254.47C201.996 254.47 253.481 202.985 253.481 139.475C253.481 75.964 201.996 24.4785 138.485 24.4785ZM61.8657 139.475C61.8657 97.1587 96.1695 62.855 138.485 62.855C180.801 62.855 215.105 97.1587 215.105 139.475C215.105 172.171 194.625 200.083 165.794 211.084L140.649 190.358C139.567 189.275 137.943 189.275 136.319 190.358L110.945 210.995C82.2356 199.933 61.8657 172.083 61.8657 139.475Z" fill="#D1D1D1"/>
<path d="M88.7036 196.992L111.308 178.444L96.0196 165.893C95.4783 164.811 93.8544 164.811 92.7718 165.893L75.0459 180.445C78.8109 186.585 83.4169 192.154 88.7036 196.992Z" fill="#A3A3A3"/>
</svg>
