<svg width="280" height="280" viewBox="0 0 280 280" fill="none" xmlns="http://www.w3.org/2000/svg">
<path d="M139.029 4.0239C136.554 4.14831 134.129 4.76066 131.896 5.82502L34.5542 52.2323C32.0347 53.4329 29.8209 55.1795 28.0773 57.3429C26.3338 59.5063 25.105 62.0307 24.4825 64.7284L0.467656 168.971C-0.0868704 171.373 -0.148941 173.861 0.28515 176.285C0.719241 178.711 1.64068 181.027 2.99488 183.094C3.32326 183.599 3.67641 184.089 4.05309 184.56L71.4293 268.145C73.1733 270.307 75.3873 272.054 77.9067 273.254C80.4262 274.455 83.1864 275.076 85.9826 275.076L194.031 275.051C196.826 275.053 199.586 274.433 202.106 273.236C204.624 272.038 206.839 270.293 208.584 268.132L275.936 184.535C277.681 182.371 278.909 179.846 279.532 177.147C280.156 174.448 280.156 171.645 279.534 168.946L255.481 64.7035C254.858 62.0057 253.63 59.4814 251.886 57.3182C250.143 55.1548 247.928 53.4079 245.41 52.2074L148.055 5.82502C145.247 4.48613 142.143 3.86681 139.029 4.0239Z" fill="url(#paint0_linear_1954_24)"/>
<path d="M140.056 61.6516C134.907 61.6516 129.884 62.1392 125.002 63.0359C124.814 63.0674 124.657 62.9257 124.657 62.7369V45.0866C124.657 44.6777 124.327 44.3315 123.903 44.3315H105.114C104.706 44.3315 104.36 44.6618 104.36 45.0866V69.5328C104.36 69.643 104.298 69.7532 104.188 69.8004C76.2937 83.2033 57.0176 111.787 57.0176 144.87C57.0176 177.953 76.2937 206.52 104.188 219.938C104.298 219.985 104.36 220.095 104.36 220.206V244.652C104.36 245.062 104.69 245.407 105.114 245.407H123.903C124.311 245.407 124.657 245.077 124.657 244.652V226.987C124.657 226.797 124.829 226.656 125.002 226.687C129.884 227.585 134.907 228.073 140.056 228.073C185.923 228.073 223.095 190.82 223.095 144.854C223.095 98.8873 185.907 61.6516 140.056 61.6516ZM76.5605 144.87C76.5605 123.239 87.3916 104.11 103.889 92.5949C104.093 92.4533 104.376 92.5949 104.376 92.8465V196.893C104.376 197.144 104.093 197.285 103.889 197.144C87.3916 185.645 76.5605 166.5 76.5605 144.87ZM147.088 208.124C139.491 208.959 132.144 208.424 125.238 206.757C124.892 206.677 124.657 206.363 124.657 206.016V83.7382C124.657 83.3921 124.892 83.0774 125.238 82.9988C129.994 81.8505 134.954 81.2368 140.071 81.2368C176.347 81.2368 205.623 111.881 203.457 148.708C201.652 179.416 177.603 204.775 147.104 208.124H147.088Z" fill="white"/>
<defs>
<linearGradient id="paint0_linear_1954_24" x1="-64.0258" y1="24.2899" x2="192.077" y2="197.43" gradientUnits="userSpaceOnUse">
<stop stop-color="#1236EB"/>
<stop offset="1" stop-color="#9951FF"/>
</linearGradient>
</defs>
</svg>
