<svg xmlns="http://www.w3.org/2000/svg" width="280" height="280" fill="none"><path fill="#fff" d="M0 0h280v280H0z"/><path fill="#000" d="M266.084 95.135c4.274-1.246 9.571-1.988 13.888-2.968V70.045h-65.731L191.762 96.65l30.967 1.231-78.106 73.076 37.346-56.918-34.646-1.009L178.097 70H92.038c-.46 3.858-.86 7.3-1.35 11.35H0c1.202 2.568 1.602 4.452 2.7 5.61 19.794 21.663 43.608 36.307 72.794 41.204 7.078 1.187 14.378.949 21.456 2.122 13.042 2.151 22.033 12.33 23.206 25.446 1.483 16.411-7.048 26.515-28.192 33.133v20.773h69.737c5.802-16.589 11.87-22.257 23.74-22.257 11.871 0 18.399 6.009 23.607 21.886h70.702c-.201-4.188-.175-8.384.074-12.568.89-7.552-1.484-10.386-9.704-11.603-20.135-2.968-35.952-21.663-36.99-41.427-1.247-23.221 11.692-42.361 32.954-48.534"/></svg>