<svg width="40" height="35" viewBox="0 0 40 35" fill="none" xmlns="http://www.w3.org/2000/svg">
<path d="M27.5453 13.7398C27.5453 13.2513 27.3621 12.8238 27.0262 12.488C26.3239 11.7857 25.1942 11.8162 24.5225 12.488L18.9044 18.1671L15.8511 15.1138C15.5152 14.778 15.0877 14.5948 14.5992 14.5948C14.1107 14.5948 13.6832 14.778 13.3473 15.1138C12.6451 15.8161 12.6756 16.9458 13.3473 17.6175L18.9349 23.1746L27.0567 14.9917C27.3621 14.6558 27.5453 14.2284 27.5453 13.7398Z" fill="#61175E"/>
<path d="M10.1113 8.94614C9.71432 8.5492 9.07312 8.5492 8.67619 8.94614L0.707031 16.9458L2.84435 19.0832C3.02755 19.2664 3.30235 19.3885 3.54662 19.3885C3.82142 19.3885 4.06568 19.2969 4.24888 19.0832C4.64581 18.6862 4.64581 18.045 4.24888 17.6481L3.54662 16.9458L3.60768 16.8848L10.1113 10.3812C10.5082 9.98426 10.5082 9.34307 10.1113 8.94614Z" fill="url(#paint0_linear_1071_286)"/>
<path d="M35.5154 17.8924C35.7901 17.8924 36.0344 17.8008 36.2176 17.5871L39.6679 14.1369L25.5615 0L18.8748 6.68677L14.8749 2.68692L11.5163 6.04557C11.3331 6.22877 11.2109 6.47303 11.2109 6.74783C11.2109 7.02263 11.3025 7.2669 11.5163 7.4501C11.9132 7.84703 12.5544 7.84703 12.9513 7.4501L14.8749 5.52651L18.8748 9.52635L25.5615 2.83959L25.6226 2.90065L36.8588 14.1369L34.8131 16.1826C34.4162 16.5795 34.4162 17.2207 34.8131 17.6176C34.9963 17.7703 35.2406 17.8924 35.5154 17.8924Z" fill="url(#paint1_linear_1071_286)"/>
<path d="M5.83555 21.7091L18.8732 34.7468L22.0792 31.5713C22.4761 31.1744 22.4761 30.5332 22.0792 30.1363C21.896 29.9531 21.6517 29.831 21.3769 29.831C21.1021 29.831 20.8579 29.9226 20.6747 30.1363L18.9038 31.9072L18.8427 31.8461L7.27061 20.3046C7.08741 20.1214 6.81261 19.9993 6.56835 19.9993C6.32408 19.9993 6.04928 20.0909 5.86608 20.3046C5.46915 20.671 5.46915 21.3122 5.83555 21.7091Z" fill="url(#paint2_linear_1071_286)"/>
<path d="M32.6134 18.6252C32.3691 18.6252 32.0943 18.7168 31.9111 18.9306L23.5145 27.2967C23.1176 27.6936 23.1176 28.3348 23.5145 28.7317C23.6977 28.9149 23.942 29.0371 24.2168 29.0371C24.4916 29.0371 24.7358 28.9455 24.919 28.7317L33.3156 20.3351C33.7126 19.9382 33.7126 19.297 33.3156 18.9C33.1019 18.7168 32.8576 18.6252 32.6134 18.6252Z" fill="url(#paint3_linear_1071_286)"/>
<path d="M16.5536 26.7166L18.8741 29.0372L25.9578 21.9535C26.3547 21.5565 26.3547 20.9153 25.9578 20.5184C25.5608 20.1215 24.9196 20.1215 24.5227 20.5184L18.8435 26.167L17.9581 25.2816C17.7749 25.0984 17.5001 24.9762 17.2558 24.9762C17.0116 24.9762 16.7368 25.0678 16.5536 25.2816C16.1566 25.6785 16.1566 26.3197 16.5536 26.7166Z" fill="url(#paint4_linear_1071_286)"/>
<path d="M25.5006 5.70972L23.577 7.63331C23.1801 8.03024 23.1801 8.67144 23.577 9.06837C23.7602 9.25157 24.0045 9.3737 24.2793 9.3737C24.5541 9.3737 24.7983 9.2821 24.9815 9.06837L25.5006 8.5493L25.5617 8.61037L30.966 14.0453L27.2715 17.7398C26.8746 18.1367 26.8746 18.7779 27.2715 19.1748C27.4547 19.358 27.699 19.4802 27.9738 19.4802C28.2486 19.4802 28.4928 19.3886 28.676 19.1748L33.8361 14.0453L25.5006 5.70972Z" fill="url(#paint5_linear_1071_286)"/>
<path d="M22.0797 11.9997C22.4767 11.6027 22.4767 10.9615 22.0797 10.5646C21.6828 10.1677 21.0416 10.1677 20.6447 10.5646L18.8738 12.3355L14.9044 8.36621L6.50781 16.7323L13.622 23.8465C13.8052 24.0297 14.0495 24.1519 14.3243 24.1519C14.5991 24.1519 14.8434 24.0603 15.0266 23.8465C15.4235 23.4496 15.4235 22.8084 15.0266 22.4115L9.37793 16.7323L9.439 16.6712L14.9044 11.2058L18.8738 15.1751L22.0797 11.9997Z" fill="url(#paint6_linear_1071_286)"/>
<defs>
<linearGradient id="paint0_linear_1071_286" x1="-3.99477" y1="24.488" x2="27.4209" y2="-6.92764" gradientUnits="userSpaceOnUse">
<stop stop-color="#FDE87E"/>
<stop offset="0.0640546" stop-color="#FBD178"/>
<stop offset="0.1985" stop-color="#F79668"/>
<stop offset="0.3907" stop-color="#F03950"/>
<stop offset="0.4545" stop-color="#EE1847"/>
<stop offset="0.5636" stop-color="#CB184D"/>
<stop offset="0.8043" stop-color="#72175B"/>
<stop offset="0.8492" stop-color="#61175E"/>
</linearGradient>
<linearGradient id="paint1_linear_1071_286" x1="3.60598" y1="32.0884" x2="35.0216" y2="0.672677" gradientUnits="userSpaceOnUse">
<stop stop-color="#FDE87E"/>
<stop offset="0.0640546" stop-color="#FBD178"/>
<stop offset="0.1985" stop-color="#F79668"/>
<stop offset="0.3907" stop-color="#F03950"/>
<stop offset="0.4545" stop-color="#EE1847"/>
<stop offset="0.5636" stop-color="#CB184D"/>
<stop offset="0.8043" stop-color="#72175B"/>
<stop offset="0.8492" stop-color="#61175E"/>
</linearGradient>
<linearGradient id="paint2_linear_1071_286" x1="5.70679" y1="34.1908" x2="37.1225" y2="2.7751" gradientUnits="userSpaceOnUse">
<stop stop-color="#FDE87E"/>
<stop offset="0.0640546" stop-color="#FBD178"/>
<stop offset="0.1985" stop-color="#F79668"/>
<stop offset="0.3907" stop-color="#F03950"/>
<stop offset="0.4545" stop-color="#EE1847"/>
<stop offset="0.5636" stop-color="#CB184D"/>
<stop offset="0.8043" stop-color="#72175B"/>
<stop offset="0.8492" stop-color="#61175E"/>
</linearGradient>
<linearGradient id="paint3_linear_1071_286" x1="11.8737" y1="40.3574" x2="43.2893" y2="8.9417" gradientUnits="userSpaceOnUse">
<stop stop-color="#FDE87E"/>
<stop offset="0.0640546" stop-color="#FBD178"/>
<stop offset="0.1985" stop-color="#F79668"/>
<stop offset="0.3907" stop-color="#F03950"/>
<stop offset="0.4545" stop-color="#EE1847"/>
<stop offset="0.5636" stop-color="#CB184D"/>
<stop offset="0.8043" stop-color="#72175B"/>
<stop offset="0.8492" stop-color="#61175E"/>
</linearGradient>
<linearGradient id="paint4_linear_1071_286" x1="8.18252" y1="36.6657" x2="39.5982" y2="5.25005" gradientUnits="userSpaceOnUse">
<stop stop-color="#FDE87E"/>
<stop offset="0.0640546" stop-color="#FBD178"/>
<stop offset="0.1985" stop-color="#F79668"/>
<stop offset="0.3907" stop-color="#F03950"/>
<stop offset="0.4545" stop-color="#EE1847"/>
<stop offset="0.5636" stop-color="#CB184D"/>
<stop offset="0.8043" stop-color="#72175B"/>
<stop offset="0.8492" stop-color="#61175E"/>
</linearGradient>
<linearGradient id="paint5_linear_1071_286" x1="5.53128" y1="34.0136" x2="36.947" y2="2.5979" gradientUnits="userSpaceOnUse">
<stop stop-color="#FDE87E"/>
<stop offset="0.0640546" stop-color="#FBD178"/>
<stop offset="0.1985" stop-color="#F79668"/>
<stop offset="0.3907" stop-color="#F03950"/>
<stop offset="0.4545" stop-color="#EE1847"/>
<stop offset="0.5636" stop-color="#CB184D"/>
<stop offset="0.8043" stop-color="#72175B"/>
<stop offset="0.8492" stop-color="#61175E"/>
</linearGradient>
<linearGradient id="paint6_linear_1071_286" x1="1.29806" y1="29.7816" x2="32.7137" y2="-1.63411" gradientUnits="userSpaceOnUse">
<stop stop-color="#FDE87E"/>
<stop offset="0.0640546" stop-color="#FBD178"/>
<stop offset="0.1985" stop-color="#F79668"/>
<stop offset="0.3907" stop-color="#F03950"/>
<stop offset="0.4545" stop-color="#EE1847"/>
<stop offset="0.5636" stop-color="#CB184D"/>
<stop offset="0.8043" stop-color="#72175B"/>
<stop offset="0.8492" stop-color="#61175E"/>
</linearGradient>
</defs>
</svg>
