<svg width="280" height="280" viewBox="0 0 280 280" fill="none" xmlns="http://www.w3.org/2000/svg">
<path d="M78.988 90.0861C79.5668 92.9811 79.8563 95.7798 79.8563 98.4815C79.8563 100.991 79.5668 103.693 78.988 106.588L42.2428 106.298V203.569C42.2428 211.675 46.0041 215.728 53.5268 215.728H75.5161C76.8665 219.009 77.5414 222.29 77.5414 225.572C77.5414 228.852 77.3487 230.878 76.9627 231.65C68.0897 232.808 58.928 233.388 49.4761 233.388C30.7658 233.388 21.4107 225.378 21.4107 209.359V106.298L0.868001 106.588C0.289291 103.693 0 100.991 0 98.4815C0 95.7798 0.289291 92.9811 0.868001 90.0861L21.4107 90.3756V59.9784C21.4107 54.7674 22.1823 51.1004 23.7254 48.9774C25.2686 46.6614 28.2583 45.5034 32.6948 45.5034H40.5067L42.2428 47.2403V90.6651L78.988 90.0861Z" fill="#0312B7"/>
<path d="M99.623 222.098C99.8173 217.851 100.973 213.219 103.095 208.201C105.411 202.99 108.016 198.937 110.91 196.042C126.148 204.341 139.552 208.49 151.128 208.49C157.489 208.49 162.605 207.237 166.46 204.727C170.509 202.218 172.537 198.841 172.537 194.595C172.537 187.84 167.327 182.436 156.911 178.382L140.713 172.303C116.404 163.426 104.256 149.24 104.256 129.747C104.256 122.8 105.506 116.624 108.016 111.219C110.716 105.622 114.382 100.894 119.01 97.0338C123.832 92.9809 129.525 89.8928 136.08 87.7699C142.64 85.6471 149.967 84.5854 158.072 84.5854C161.733 84.5854 165.787 84.8749 170.222 85.4538C174.853 86.0329 179.481 86.9013 184.108 88.0594C188.741 89.0242 193.174 90.1822 197.418 91.5334C201.661 92.8846 205.327 94.3321 208.417 95.8759C208.417 100.701 207.45 105.719 205.522 110.93C203.595 116.141 200.989 120.001 197.707 122.509C182.47 115.755 169.26 112.377 158.072 112.377C153.056 112.377 149.101 113.632 146.207 116.141C143.313 118.457 141.868 121.545 141.868 125.405C141.868 131.388 146.69 136.117 156.334 139.591L173.982 145.959C186.714 150.398 196.167 156.477 202.339 164.198C208.511 171.917 211.599 180.892 211.599 191.121C211.599 204.824 206.484 215.824 196.263 224.123C186.042 232.23 171.382 236.282 152.283 236.282C133.574 236.282 116.021 231.554 99.623 222.098Z" fill="#0312B7"/>
<path d="M259.02 272.759V7.86852C261.909 7.28955 265.191 7 268.857 7C272.712 7 276.279 7.28955 279.562 7.86852V272.759C276.279 273.339 272.712 273.628 268.857 273.628C265.191 273.628 261.909 273.339 259.02 272.759Z" fill="#0312B7"/>
</svg>
