<svg xmlns="http://www.w3.org/2000/svg" width="280" height="280" fill="none"><g clip-path="url(#a)"><path fill="#026090" fill-rule="evenodd" d="M15.185 124.456h11.35c7.805 0 14.133 6.328 14.133 14.133 0 7.806-6.328 14.133-14.133 14.133h-11.35c-7.805 0-14.132-6.327-14.132-14.133s6.327-14.133 14.132-14.133m0 9.066a5.065 5.065 0 0 0-5.068 5.067 5.067 5.067 0 0 0 5.068 5.068h11.35a5.07 5.07 0 0 0 3.583-8.651 5.07 5.07 0 0 0-3.583-1.484z" clip-rule="evenodd"/><path fill="#fff" d="M14.883 125.623c-7.16 0-12.966 5.806-12.966 12.967s5.805 12.967 12.967 12.967h11.951c7.161 0 12.967-5.806 12.967-12.967s-5.806-12.967-12.967-12.967zm0-1.917h11.952c8.22 0 14.884 6.664 14.884 14.884s-6.664 14.883-14.884 14.883H14.883C6.663 153.473 0 146.809 0 138.589c0-8.219 6.664-14.882 14.884-14.882zm0 11.464a3.422 3.422 0 0 0-2.418 5.839 3.42 3.42 0 0 0 2.418 1.001h11.952a3.422 3.422 0 0 0 2.419-5.839 3.42 3.42 0 0 0-2.419-1.001zm0-1.917h11.952a5.336 5.336 0 1 1 0 10.674H14.883a5.34 5.34 0 0 1-5.337-5.337 5.337 5.337 0 0 1 5.337-5.337"/><path fill="#026090" fill-rule="evenodd" d="M59.17 124.768h11.099c7.634 0 13.822 6.188 13.822 13.822s-6.188 13.822-13.822 13.822h-11.1c-7.633 0-13.822-6.189-13.822-13.823 0-7.633 6.189-13.821 13.823-13.821m0 8.865a4.958 4.958 0 0 0-4.58 6.853 4.96 4.96 0 0 0 4.58 3.06h11.099a4.957 4.957 0 1 0 0-9.913z" clip-rule="evenodd"/><path fill="#fff" d="M58.743 125.623c-7.162 0-12.967 5.806-12.967 12.967s5.805 12.967 12.967 12.967h11.951c7.162 0 12.967-5.806 12.967-12.967s-5.805-12.967-12.967-12.967zm0-1.917h11.951c8.22 0 14.884 6.664 14.884 14.884s-6.663 14.883-14.884 14.883H58.743c-8.22 0-14.884-6.664-14.884-14.884 0-8.219 6.664-14.882 14.884-14.882zm0 11.464a3.421 3.421 0 0 0-2.419 5.839 3.42 3.42 0 0 0 2.419 1.001h11.951a3.422 3.422 0 0 0 2.419-5.839 3.42 3.42 0 0 0-2.419-1.001zm0-1.917h11.951a5.336 5.336 0 1 1 0 10.674H58.743a5.34 5.34 0 0 1-5.337-5.337 5.337 5.337 0 0 1 5.337-5.337"/><path fill="#026090" fill-rule="evenodd" d="M102.904 124.456h11.349c7.806 0 14.134 6.328 14.134 14.133 0 7.806-6.328 14.133-14.134 14.133h-11.349c-7.805 0-14.132-6.327-14.132-14.133s6.327-14.133 14.132-14.133m0 9.066a5.065 5.065 0 0 0-5.068 5.067 5.067 5.067 0 0 0 5.068 5.068h11.349a5.068 5.068 0 0 0 0-10.135z" clip-rule="evenodd"/><path fill="#fff" d="M102.603 125.623c-7.161 0-12.966 5.806-12.966 12.967s5.805 12.967 12.967 12.967h11.951c7.161 0 12.967-5.806 12.967-12.967s-5.806-12.967-12.967-12.967zm0-1.917h11.952c8.22 0 14.884 6.664 14.884 14.884s-6.664 14.883-14.884 14.883h-11.952c-8.22 0-14.883-6.664-14.883-14.884 0-8.219 6.664-14.882 14.884-14.882zm0 11.464c-.907 0-1.777.36-2.419 1.001a3.424 3.424 0 0 0 0 4.838 3.42 3.42 0 0 0 2.419 1.001h11.952a3.42 3.42 0 1 0 0-6.84zm0-1.917h11.952a5.338 5.338 0 1 1 0 10.674h-11.952a5.338 5.338 0 0 1 0-10.674"/><path fill="#026090" fill-rule="evenodd" d="M147.573 124.71h11.146c7.666 0 13.88 6.214 13.88 13.879 0 7.666-6.214 13.881-13.88 13.881h-11.146c-7.666 0-13.881-6.215-13.881-13.88s6.215-13.881 13.881-13.881zm0 8.902a4.978 4.978 0 1 0 0 9.955h11.146c1.32 0 2.586-.524 3.519-1.458a4.973 4.973 0 0 0 0-7.039 4.98 4.98 0 0 0-3.519-1.458z" clip-rule="evenodd"/><path fill="#fff" d="M147.17 125.623c-7.161 0-12.966 5.806-12.966 12.967s5.805 12.967 12.967 12.967h11.951c7.161 0 12.967-5.806 12.967-12.967s-5.806-12.967-12.967-12.967zm0-1.917h11.952c8.22 0 14.884 6.664 14.884 14.884s-6.664 14.883-14.884 14.883H147.17c-8.22 0-14.883-6.664-14.883-14.884 0-8.219 6.664-14.882 14.884-14.882zm0 11.464a3.42 3.42 0 1 0 0 6.84h11.952c.907 0 1.777-.36 2.419-1.001a3.424 3.424 0 0 0 0-4.838 3.42 3.42 0 0 0-2.419-1.001zm0-1.917h11.952a5.336 5.336 0 1 1 0 10.674H147.17a5.338 5.338 0 0 1 0-10.674"/><path stroke="#fff" stroke-width="2.71" d="M29.354 142.968h27.21a4.379 4.379 0 0 0 0-8.757h-27.21a4.379 4.379 0 1 0 0 8.757Z" clip-rule="evenodd"/><path fill="#026090" fill-rule="evenodd" d="M29.353 142.009h27.21a3.4 3.4 0 0 0 2.45-.984 3.418 3.418 0 0 0-1.125-5.61 3.4 3.4 0 0 0-1.324-.246H29.353a3.42 3.42 0 0 0-3.42 3.421 3.42 3.42 0 0 0 3.42 3.42z" clip-rule="evenodd"/><path fill="#fff" d="M73.214 143.926a5.336 5.336 0 1 1 0-10.673h27.21a5.336 5.336 0 1 1 0 10.673z"/><path fill="#026090" fill-rule="evenodd" d="M73.213 142.009h27.211a3.4 3.4 0 0 0 2.45-.984 3.415 3.415 0 0 0 .754-3.756 3.43 3.43 0 0 0-1.88-1.854 3.4 3.4 0 0 0-1.324-.246h-27.21a3.422 3.422 0 0 0-2.42 5.839 3.42 3.42 0 0 0 2.42 1.002z" clip-rule="evenodd"/><path fill="#fff" d="M117.074 143.926a5.338 5.338 0 1 1 0-10.673h27.211a5.334 5.334 0 0 1 5.336 5.337 5.335 5.335 0 0 1-5.336 5.336z"/><path fill="#026090" fill-rule="evenodd" d="M117.075 142.01h27.21a3.42 3.42 0 0 0 0-6.84h-27.21a3.42 3.42 0 1 0 0 6.841zm146.966-12.012h6.888c4.736 0 8.576 3.846 8.576 8.592 0 4.744-3.84 8.59-8.576 8.59h-6.888c-4.737 0-8.577-3.846-8.577-8.59 0-4.746 3.84-8.592 8.577-8.592m0 5.511a3.076 3.076 0 0 0-3.076 3.081 3.075 3.075 0 0 0 1.898 2.845c.373.155.773.235 1.178.235h6.888a3.07 3.07 0 0 0 2.175-.903 3.1 3.1 0 0 0 .9-2.177 3.09 3.09 0 0 0-1.898-2.846 3.1 3.1 0 0 0-1.177-.235z" clip-rule="evenodd"/><path fill="#fff" d="M263.898 130.797c-4.296 0-7.78 3.489-7.78 7.793s3.484 7.793 7.78 7.793h7.171c4.297 0 7.781-3.489 7.781-7.793s-3.484-7.793-7.781-7.793zm0-1.152h7.171c4.933 0 8.93 4.004 8.93 8.945 0 4.94-3.997 8.944-8.93 8.944h-7.171c-4.932 0-8.929-4.004-8.929-8.944s3.997-8.945 8.929-8.945m0 6.89a2.05 2.05 0 0 0-2.051 2.055 2.053 2.053 0 0 0 2.051 2.055h7.171a2.053 2.053 0 0 0 1.896-2.841 2.04 2.04 0 0 0-1.11-1.113 2.1 2.1 0 0 0-.786-.157zm0-1.153h7.171a3.2 3.2 0 0 1 2.266.94 3.21 3.21 0 0 1 0 4.535 3.2 3.2 0 0 1-2.266.94h-7.171a3.2 3.2 0 0 1-1.226-.245 3.2 3.2 0 0 1-1.733-1.736 3.208 3.208 0 0 1 2.959-4.434"/><path fill="#026090" fill-rule="evenodd" d="M237.757 130.247h6.688c4.6 0 8.328 3.735 8.328 8.343 0 4.607-3.728 8.342-8.328 8.342h-6.688c-4.6 0-8.328-3.735-8.328-8.342s3.728-8.343 8.328-8.343m0 5.351a2.98 2.98 0 0 0-2.986 2.992 2.99 2.99 0 0 0 2.986 2.991h6.688a3 3 0 0 0 2.113-.877 3 3 0 0 0 .874-2.114 3 3 0 0 0-.874-2.115 3 3 0 0 0-2.113-.877z" clip-rule="evenodd"/><path fill="#fff" d="M237.515 130.797c-4.296 0-7.78 3.489-7.78 7.793s3.484 7.793 7.78 7.793h7.171c4.297 0 7.78-3.489 7.78-7.793s-3.483-7.793-7.78-7.793zm0-1.152h7.171c4.932 0 8.93 4.004 8.93 8.945 0 4.94-3.998 8.944-8.93 8.944h-7.171c-4.932 0-8.93-4.004-8.93-8.944s3.998-8.945 8.93-8.945m0 6.89a2.053 2.053 0 0 0-2.052 2.055 2.06 2.06 0 0 0 2.052 2.055h7.171a2.053 2.053 0 0 0 1.896-2.841 2.06 2.06 0 0 0-1.896-1.27zm0-1.153h7.171a3.2 3.2 0 0 1 2.266.941c.297.297.533.651.693 1.04.161.389.244.806.243 1.227a3.2 3.2 0 0 1-3.202 3.207h-7.171c-.421 0-.837-.083-1.226-.245a3.2 3.2 0 0 1-1.733-1.736 3.208 3.208 0 0 1 2.959-4.434"/><path fill="#fff" d="M246.196 141.797a3.206 3.206 0 0 1-2.959-4.434 3.2 3.2 0 0 1 2.959-1.981h16.327a3.203 3.203 0 0 1 3.202 3.207 3.21 3.21 0 0 1-3.202 3.208z"/><path fill="#026090" d="M246.197 140.645h16.327a2.054 2.054 0 0 0 1.896-2.841 2.07 2.07 0 0 0-1.11-1.113 2.1 2.1 0 0 0-.786-.157h-16.327c-1.133 0-2.051.92-2.051 2.056a2.05 2.05 0 0 0 2.051 2.055"/><path stroke="#fff" stroke-width="1.626" d="M246.197 141.22h16.327a2.63 2.63 0 0 0 2.427-3.637 2.625 2.625 0 0 0-2.428-1.625h-16.326a2.63 2.63 0 0 0 0 5.262Z" clip-rule="evenodd"/><path fill="#4393BB" d="M203.722 133.592h-23.001v9.922h23.001v11.125l17.289-16.086-17.289-16.086z"/><path stroke="#fff" stroke-linecap="square" stroke-linejoin="round" stroke-width="1.806" d="M203.082 132.952h-23.001v11.2h23v11.953l1.075-.999 17.29-16.086.502-.468-.502-.467-17.29-16.087-1.075-.998v11.953z"/></g><defs><clipPath id="a"><path fill="#fff" d="M0 0h280v280H0z"/></clipPath></defs></svg>