<svg width="280" height="280" viewBox="0 0 280 280" fill="none" xmlns="http://www.w3.org/2000/svg">
<path d="M75.0526 13C81.4479 13 84.6455 13 87.0881 14.2446C89.2367 15.3394 90.9836 17.0863 92.0784 19.2349C93.323 21.6776 93.323 24.8752 93.323 31.2704V111.602C93.323 121.136 93.323 125.903 91.3147 128.825C89.5602 131.377 86.8437 133.108 83.7886 133.62C80.2913 134.205 75.9712 132.19 67.3308 128.16L44.8318 117.668C28.5855 110.092 20.4623 106.304 14.5146 100.459C9.25633 95.2916 5.24446 88.9942 2.78355 82.0447C0 74.1839 0 65.221 0 47.2949V31.2705C0 24.8752 0 21.6776 1.2446 19.2349C2.33938 17.0863 4.08627 15.3394 6.23489 14.2446C8.67755 13 11.8752 13 18.2704 13H75.0526Z" fill="#FF5F3B"/>
<path d="M261.727 13C268.122 13 271.321 13 273.763 14.2446C275.911 15.3394 277.658 17.0863 278.753 19.2349C279.998 21.6776 279.998 24.8752 279.998 31.2704V47.3046C279.998 65.2306 279.998 74.1937 277.213 82.0543C274.754 89.0038 270.742 95.3014 265.483 100.469C259.536 106.314 251.412 110.102 235.166 117.678L186.675 140.292V31.2704C186.675 24.8752 186.675 21.6776 187.919 19.2349C189.014 17.0863 190.761 15.3394 192.91 14.2446C195.352 13 198.55 13 204.946 13H261.727Z" fill="#FF5F3B"/>
<path d="M186.664 140.292V249.323C186.664 255.718 186.664 258.915 185.419 261.358C184.325 263.506 182.578 265.253 180.429 266.349C177.987 267.593 174.788 267.593 168.393 267.593H111.611C105.216 267.593 102.018 267.593 99.5757 266.349C97.4271 265.253 95.6802 263.506 94.5855 261.358C93.3408 258.915 93.3408 255.718 93.3408 249.323V233.279C93.3408 215.353 93.3408 206.39 96.1243 198.529C98.5852 191.579 102.597 185.281 107.855 180.115C113.803 174.27 121.926 170.481 138.173 162.906L186.664 140.292Z" fill="#FF5F3B"/>
</svg>
